<svg width="48" height="48" viewBox="0 0 48 48" fill="none" xmlns="http://www.w3.org/2000/svg">
<path d="M41.6254 29.7018C40.8754 25.4268 40.1254 21.0768 39.3754 16.8018C39.1504 15.4518 38.9254 14.0268 38.6254 12.6768C38.1754 10.1268 36.2254 7.95184 33.6004 7.50184C32.3254 7.27684 30.9754 7.35184 29.7754 7.35184C27.5254 7.35184 25.2754 7.35184 22.9504 7.35184C20.9254 7.35184 18.9754 7.35184 16.9504 7.35184C15.1504 7.35184 13.5004 7.42684 11.9254 8.47684C10.5754 9.45184 9.67541 10.8018 9.37541 12.4518C8.25041 18.9018 7.05041 25.3518 6.00041 31.7268C5.47541 34.8018 6.82541 37.9518 9.52541 39.5268C11.0254 40.4268 12.6754 40.5768 14.3254 40.5768H26.6254H32.6254C33.9004 40.5768 35.1754 40.6518 36.3754 40.3518C39.5254 39.6018 41.7754 36.7518 42.0004 33.5268C42.2254 32.3268 41.8504 30.9768 41.6254 29.7018ZM37.9504 37.2018C36.7504 38.2518 35.2504 38.3268 33.7504 38.3268C32.1754 38.3268 30.6004 38.3268 28.9504 38.3268C24.7504 38.3268 20.5504 38.3268 16.4254 38.3268C15.3754 38.3268 14.4004 38.3268 13.3504 38.3268C10.7254 38.3268 8.47541 36.4518 8.17541 33.8268C8.02541 32.7018 8.32541 31.5768 8.55041 30.5268C8.85041 28.6518 9.22541 26.7768 9.52541 24.9018C10.0504 20.9268 10.9504 17.0268 11.6254 13.0518C12.0754 10.8018 13.8004 9.60184 16.0504 9.60184H20.7004H32.0254C34.1254 9.60184 35.9254 10.6518 36.4504 12.7518C36.6754 13.6518 36.7504 14.5518 36.9004 15.4518C37.6504 19.5768 38.3254 23.6268 39.0754 27.7518C39.6004 30.9768 40.8754 34.8018 37.9504 37.2018Z" fill="white"/>
<path d="M28.875 13.2017V15.9767C28.8 17.5517 27.975 19.1267 26.55 19.9517C23.625 21.7517 19.65 19.9517 19.125 16.5017C18.975 15.4517 19.05 14.3267 19.05 13.2767C19.05 11.8517 16.8 11.8517 16.8 13.2767C16.8 14.4767 16.725 15.6767 16.875 16.8017C17.175 18.9767 18.525 20.9267 20.4 22.0517C24.375 24.3017 29.625 22.1267 30.825 17.7017C31.2 16.2767 31.05 14.7767 31.05 13.2767C31.125 11.7017 28.875 11.7017 28.875 13.2017Z" fill="white"/>
</svg>
