<svg xmlns="http://www.w3.org/2000/svg" width="40" height="40" viewBox="0 0 40 40" fill="none">
  <path d="M31.6663 3.33337H8.33301C7.00693 3.33337 5.73516 3.86016 4.79747 4.79784C3.85979 5.73552 3.33301 7.00729 3.33301 8.33337V31.6667C3.33301 32.9928 3.85979 34.2646 4.79747 35.2022C5.73516 36.1399 7.00693 36.6667 8.33301 36.6667H31.6663C32.9924 36.6667 34.2642 36.1399 35.2019 35.2022C36.1396 34.2646 36.6663 32.9928 36.6663 31.6667V8.33337C36.6663 7.00729 36.1396 5.73552 35.2019 4.79784C34.2642 3.86016 32.9924 3.33337 31.6663 3.33337ZM28.333 21.6667H11.6663C11.2243 21.6667 10.8004 21.4911 10.4878 21.1786C10.1753 20.866 9.99967 20.4421 9.99967 20C9.99967 19.558 10.1753 19.1341 10.4878 18.8215C10.8004 18.509 11.2243 18.3334 11.6663 18.3334H28.333C28.775 18.3334 29.199 18.509 29.5115 18.8215C29.8241 19.1341 29.9997 19.558 29.9997 20C29.9997 20.4421 29.8241 20.866 29.5115 21.1786C29.199 21.4911 28.775 21.6667 28.333 21.6667Z" fill="#28282A"/>
</svg>