<svg width="848" height="901" viewBox="0 0 848 901" fill="none" xmlns="http://www.w3.org/2000/svg">
<path d="M0.5 145C0.5 138.649 5.64873 133.5 12 133.5H836C842.351 133.5 847.5 138.649 847.5 145V889C847.5 895.351 842.351 900.5 836 900.5H12C5.6487 900.5 0.5 895.351 0.5 889V145Z" fill="#F2F0EA" stroke="#010101"/>
<path d="M254 16C254 7.16345 261.163 0 270 0H563C571.837 0 579 7.16344 579 16V133H254V16Z" fill="#010101"/>
<path d="M254 134H579V900H254V134Z" fill="#010101"/>
<mask id="path-4-inside-1_4398_1124" fill="white">
<path d="M0 133H848V229H0V133Z"/>
</mask>
<path d="M848 228H0V230H848V228Z" fill="#010101" mask="url(#path-4-inside-1_4398_1124)"/>
<mask id="path-6-inside-2_4398_1124" fill="white">
<path d="M0 229H848V325H0V229Z"/>
</mask>
<path d="M848 324H0V326H848V324Z" fill="#010101" mask="url(#path-6-inside-2_4398_1124)"/>
<mask id="path-8-inside-3_4398_1124" fill="white">
<path d="M0 325H848V421H0V325Z"/>
</mask>
<path d="M848 420H0V422H848V420Z" fill="#010101" mask="url(#path-8-inside-3_4398_1124)"/>
<mask id="path-10-inside-4_4398_1124" fill="white">
<path d="M0 421H848V517H0V421Z"/>
</mask>
<path d="M848 516H0V518H848V516Z" fill="#010101" mask="url(#path-10-inside-4_4398_1124)"/>
<mask id="path-12-inside-5_4398_1124" fill="white">
<path d="M0 517H848V613H0V517Z"/>
</mask>
<path d="M848 612H0V614H848V612Z" fill="#010101" mask="url(#path-12-inside-5_4398_1124)"/>
<mask id="path-14-inside-6_4398_1124" fill="white">
<path d="M0 613H848V709H0V613Z"/>
</mask>
<path d="M848 708H0V710H848V708Z" fill="#010101" mask="url(#path-14-inside-6_4398_1124)"/>
<mask id="path-16-inside-7_4398_1124" fill="white">
<path d="M0 709H848V805H0V709Z"/>
</mask>
<path d="M848 804H0V806H848V804Z" fill="#010101" mask="url(#path-16-inside-7_4398_1124)"/>
<path d="M668.104 82.768C668.104 85.792 670.432 88.216 673.432 88.216C676.384 88.216 678.76 85.792 678.76 82.768C678.76 79.768 676.384 77.296 673.432 77.296C670.432 77.296 668.104 79.768 668.104 82.768ZM665.056 82.768C665.056 78.088 668.728 74.272 673.432 74.272C678.136 74.272 681.832 78.088 681.832 82.768C681.832 87.424 678.136 91.24 673.432 91.24C668.728 91.24 665.056 87.424 665.056 82.768ZM683.141 77.272V74.464H695.549V77.272H690.893V91H687.797V77.272H683.141ZM707.963 74.464H711.059V91H707.963V84.16H701.339V91H698.291V74.464H701.339V81.4H707.963V74.464ZM715.189 91V74.464H725.413V77.2H718.237V81.496H724.525V84.208H718.237V88.264H725.653V91H715.189ZM735.403 77.2H731.995V82.384H735.307C736.939 82.384 737.635 81.04 737.635 79.816C737.635 78.616 736.939 77.2 735.403 77.2ZM736.627 85L740.851 91H737.155L733.267 85.12H731.995V91H728.923V74.464H735.547C739.195 74.464 740.827 77.128 740.827 79.816C740.827 82.168 739.579 84.544 736.627 85ZM743.104 86.176H746.176C746.248 87.4 747.256 88.504 749.032 88.504C750.688 88.504 751.696 87.64 751.768 86.512C751.84 85.432 751.072 84.688 749.488 84.256L747.448 83.728C743.848 82.696 743.272 80.56 743.272 79.12C743.272 76.216 745.792 74.272 748.84 74.272C751.96 74.272 754.336 76.192 754.336 79.264H751.264C751.264 77.944 750.328 77.104 748.792 77.104C747.424 77.104 746.32 77.872 746.32 79.048C746.32 79.528 746.512 80.512 748.288 80.944L750.328 81.544C754.048 82.576 754.96 84.64 754.84 86.584C754.72 89.56 752.032 91.264 749.032 91.264C745.504 91.264 743.104 89.008 743.104 86.176Z" fill="#010101"/>
<g clip-path="url(#clip0_4398_1124)">
<path d="M344.414 83H303.586C303.26 83 303 82.7395 303 82.414V41.586C303 41.2605 303.26 41 303.586 41H324.065C324.391 41 324.651 41.2605 324.651 41.586V46.1442C324.651 46.4698 324.391 46.7302 324.065 46.7302H309.349C309.023 46.7302 308.763 46.9907 308.763 47.3163V76.586C308.763 76.9116 309.023 77.1721 309.349 77.1721H338.619C338.944 77.1721 339.205 76.9116 339.205 76.586V62.0651C339.205 61.7395 339.465 61.4791 339.791 61.4791H344.349C344.674 61.4791 344.935 61.7395 344.935 62.0651V82.3488C344.935 82.6744 344.674 82.9349 344.349 82.9349L344.414 83Z" fill="white"/>
<path d="M344.935 41.6173V56.8219C344.935 57.1475 344.674 57.408 344.349 57.408H339.693C339.367 57.408 339.107 57.1475 339.107 56.8219V50.6359L331.065 58.6778C330.837 58.9057 330.446 58.9057 330.218 58.6778C329.502 57.9615 328.004 56.4638 327.288 55.7475C327.06 55.5196 327.06 55.1289 327.288 54.901L335.33 46.8592H329.242C328.916 46.8592 328.656 46.5987 328.656 46.2731V41.6173C328.656 41.2917 328.916 41.0312 329.242 41.0312H344.349C344.674 41.0312 344.935 41.2917 344.935 41.6173Z" fill="white"/>
<path d="M322.992 59.1913L321.174 61.01C320.627 61.5568 320.627 62.4432 321.174 62.99L322.992 64.8087C323.539 65.3554 324.425 65.3554 324.972 64.8087L326.791 62.9899C327.338 62.4432 327.338 61.5568 326.791 61.0101L324.972 59.1913C324.425 58.6446 323.539 58.6446 322.992 59.1913Z" fill="white"/>
</g>
<path d="M504.627 76.8657V46.0547H513.837C516.935 46.0547 519.572 46.5152 521.749 47.4362C523.926 48.3571 525.67 49.5851 526.982 51.1201C528.321 52.655 529.298 54.3714 529.912 56.2692C530.526 58.167 530.833 60.0787 530.833 62.0044C530.833 64.2929 530.414 66.3581 529.577 68.2001C528.768 70.0141 527.651 71.577 526.228 72.8887C524.805 74.1725 523.158 75.1633 521.288 75.861C519.418 76.5308 517.437 76.8657 515.344 76.8657H504.627ZM510.697 71.0049H514.297C515.832 71.0049 517.228 70.8095 518.484 70.4188C519.739 70.0002 520.814 69.4001 521.707 68.6187C522.628 67.8373 523.326 66.8605 523.8 65.6883C524.302 64.4883 524.554 63.1207 524.554 61.5858C524.554 59.5764 524.219 57.9437 523.549 56.6878C522.907 55.404 522.098 54.4133 521.121 53.7156C520.172 53.0179 519.195 52.5434 518.19 52.2922C517.186 52.0132 516.335 51.8736 515.637 51.8736H510.697V71.0049Z" fill="white"/>
<path d="M476.746 46.0547H497.761V51.9155H482.816V58.4879H496.045V64.3487H482.816V71.0049H498.347V76.8657H476.746V46.0547Z" fill="white"/>
<path d="M453.423 57.0227L453.256 58.5717L454.177 57.3995L464.224 46.0547H472.094L459.368 59.8694L472.136 76.8657H464.433L454.93 63.7208L453.423 65.2278V76.8657H447.27V46.0547H453.423V57.0227Z" fill="white"/>
<path d="M409.736 61.4971C409.736 59.3761 410.141 57.3666 410.95 55.4689C411.76 53.5711 412.876 51.8966 414.299 50.4453C415.751 48.9662 417.425 47.808 419.323 46.9707C421.221 46.1335 423.258 45.7148 425.435 45.7148C427.584 45.7148 429.607 46.1335 431.505 46.9707C433.403 47.808 435.077 48.9662 436.528 50.4453C438.008 51.8966 439.152 53.5711 439.961 55.4689C440.798 57.3666 441.217 59.3761 441.217 61.4971C441.217 63.674 440.798 65.7113 439.961 67.6091C439.152 69.5068 438.008 71.1814 436.528 72.6326C435.077 74.0559 433.403 75.1723 431.505 75.9816C429.607 76.791 427.584 77.1956 425.435 77.1956C423.258 77.1956 421.221 76.791 419.323 75.9816C417.425 75.1723 415.751 74.0559 414.299 72.6326C412.876 71.1814 411.76 69.5068 410.95 67.6091C410.141 65.7113 409.736 63.674 409.736 61.4971ZM416.016 61.4971C416.016 62.8646 416.253 64.1484 416.727 65.3485C417.23 66.5206 417.914 67.5672 418.779 68.4882C419.672 69.3813 420.69 70.079 421.835 70.5813C423.007 71.0837 424.277 71.3348 425.644 71.3348C426.956 71.3348 428.17 71.0837 429.286 70.5813C430.43 70.079 431.421 69.3813 432.258 68.4882C433.096 67.5672 433.752 66.5206 434.226 65.3485C434.7 64.1484 434.938 62.8646 434.938 61.4971C434.938 60.1017 434.687 58.8039 434.184 57.6039C433.71 56.4038 433.04 55.3572 432.175 54.4642C431.338 53.5432 430.347 52.8315 429.203 52.3292C428.058 51.8268 426.816 51.5756 425.477 51.5756C424.137 51.5756 422.895 51.8268 421.751 52.3292C420.607 52.8315 419.602 53.5432 418.737 54.4642C417.872 55.3572 417.202 56.4038 416.727 57.6039C416.253 58.8039 416.016 60.1017 416.016 61.4971Z" fill="white"/>
<path d="M387.528 46.0547L396.529 68.2419L393.012 67.5303L401.176 46.0547H408.376L394.31 78.289L380.244 46.0547H387.528Z" fill="white"/>
<path d="M355 46.0547H376.015V51.9155H361.07V58.4879H374.299V64.3487H361.07V71.0049H376.601V76.8657H355V46.0547Z" fill="white"/>
<path d="M80.458 182.724L81.934 183.894C80.854 185.316 79.144 186.18 77.11 186.18C73.6 186.18 70.846 183.354 70.846 179.826C70.846 176.316 73.6 173.454 77.11 173.454C79.108 173.454 80.8 174.318 81.898 175.686L80.422 176.838C79.612 175.92 78.478 175.29 77.11 175.29C74.644 175.29 72.754 177.324 72.754 179.826C72.754 182.346 74.644 184.344 77.11 184.344C78.478 184.344 79.684 183.732 80.458 182.724ZM87.4347 184.38C88.8387 184.38 89.9907 183.354 89.9907 181.77C89.9907 180.24 88.8387 179.232 87.4347 179.232C86.0487 179.232 84.8967 180.24 84.8967 181.77C84.8967 183.354 86.0487 184.38 87.4347 184.38ZM87.4347 186.18C85.0587 186.18 83.0607 184.434 83.0607 181.77C83.0607 179.106 85.0587 177.414 87.4347 177.414C89.8287 177.414 91.8447 179.106 91.8447 181.77C91.8447 184.434 89.8287 186.18 87.4347 186.18ZM95.7555 181.482V186H93.9015V177.594H95.7555V178.854C96.2415 177.9 97.4115 177.414 98.3295 177.414C100.363 177.414 101.533 178.71 101.533 181.104V186H99.6795V181.32C99.6795 179.97 98.9955 179.232 97.9155 179.232C96.8175 179.232 95.7555 179.826 95.7555 181.482ZM103.504 181.77C103.504 179.106 105.574 177.414 107.986 177.414C109.336 177.414 110.524 177.936 111.316 178.872L109.876 180.024C109.426 179.502 108.724 179.214 107.986 179.214C106.582 179.214 105.34 180.204 105.34 181.77C105.34 183.336 106.582 184.398 107.986 184.398C108.724 184.398 109.426 184.092 109.876 183.57L111.334 184.704C110.542 185.64 109.354 186.18 107.986 186.18C105.574 186.18 103.504 184.434 103.504 181.77ZM121.106 181.77C121.106 181.968 121.106 182.256 121.088 182.454H114.41C114.608 183.75 115.616 184.56 116.984 184.56C117.92 184.56 118.838 184.128 119.27 183.354L120.782 184.02C120.062 185.514 118.46 186.18 116.894 186.18C114.518 186.18 112.574 184.434 112.574 181.77C112.574 179.106 114.518 177.414 116.894 177.414C119.27 177.414 121.106 179.106 121.106 181.77ZM114.41 181.104H119.288C119.09 179.79 118.172 179.034 116.894 179.034C115.598 179.034 114.608 179.808 114.41 181.104ZM124.918 181.482V186H123.064V177.594H124.918V178.854C125.404 177.9 126.574 177.414 127.492 177.414C129.526 177.414 130.696 178.71 130.696 181.104V186H128.842V181.32C128.842 179.97 128.158 179.232 127.078 179.232C125.98 179.232 124.918 179.826 124.918 181.482ZM135.726 174.408V177.594H137.508V179.124H135.726V186H133.872V179.124H132.36V177.594H133.872V174.408H135.726ZM141.107 182.976V186H139.253V177.594H141.107V179.52C141.539 178.008 142.349 177.414 143.411 177.414C144.005 177.414 144.635 177.54 144.905 177.738L144.599 179.448C144.113 179.214 143.717 179.16 143.357 179.16C141.773 179.16 141.107 180.744 141.107 182.976ZM152.819 186V184.794C152.243 185.712 151.073 186.18 149.993 186.18C147.743 186.18 145.727 184.47 145.727 181.788C145.727 179.106 147.743 177.414 149.993 177.414C151.001 177.414 152.243 177.828 152.819 178.782V177.594H154.655V186H152.819ZM147.635 181.77C147.635 183.318 148.823 184.38 150.209 184.38C151.577 184.38 152.801 183.426 152.801 181.77C152.801 180.132 151.469 179.214 150.209 179.214C148.823 179.214 147.635 180.222 147.635 181.77ZM159.773 174.408V177.594H161.555V179.124H159.773V186H157.919V179.124H156.407V177.594H157.919V174.408H159.773ZM165.136 177.594V186H163.3V177.594H165.136ZM162.976 174.192C162.976 173.526 163.552 173.022 164.218 173.022C164.92 173.022 165.442 173.526 165.442 174.192C165.442 174.858 164.92 175.362 164.218 175.362C163.552 175.362 162.976 174.858 162.976 174.192ZM171.564 184.38C172.968 184.38 174.12 183.354 174.12 181.77C174.12 180.24 172.968 179.232 171.564 179.232C170.178 179.232 169.026 180.24 169.026 181.77C169.026 183.354 170.178 184.38 171.564 184.38ZM171.564 186.18C169.188 186.18 167.19 184.434 167.19 181.77C167.19 179.106 169.188 177.414 171.564 177.414C173.958 177.414 175.974 179.106 175.974 181.77C175.974 184.434 173.958 186.18 171.564 186.18ZM179.884 181.482V186H178.03V177.594H179.884V178.854C180.37 177.9 181.54 177.414 182.458 177.414C184.492 177.414 185.662 178.71 185.662 181.104V186H183.808V181.32C183.808 179.97 183.124 179.232 182.044 179.232C180.946 179.232 179.884 179.826 179.884 181.482Z" fill="#010101"/>
<path d="M95.62 474V461.598H102.982V463.362H97.528V467.034H101.848V468.78H97.528V474H95.62ZM107.937 472.38C109.341 472.38 110.493 471.354 110.493 469.77C110.493 468.24 109.341 467.232 107.937 467.232C106.551 467.232 105.399 468.24 105.399 469.77C105.399 471.354 106.551 472.38 107.937 472.38ZM107.937 474.18C105.561 474.18 103.563 472.434 103.563 469.77C103.563 467.106 105.561 465.414 107.937 465.414C110.331 465.414 112.347 467.106 112.347 469.77C112.347 472.434 110.331 474.18 107.937 474.18ZM116.257 470.976V474H114.403V465.594H116.257V467.52C116.689 466.008 117.499 465.414 118.561 465.414C119.155 465.414 119.785 465.54 120.055 465.738L119.749 467.448C119.263 467.214 118.867 467.16 118.507 467.16C116.923 467.16 116.257 468.744 116.257 470.976ZM131.169 467.232C129.945 467.232 129.135 468.114 129.135 469.482V474H127.281V469.284C127.263 467.988 126.579 467.232 125.571 467.232C124.491 467.232 123.447 467.826 123.447 469.482V474H121.593V465.594H123.447V466.854C124.023 465.702 125.409 465.414 126.093 465.414C127.443 465.414 128.253 466.008 128.739 467.088C129.513 465.63 130.809 465.414 131.565 465.414C133.653 465.414 134.805 466.764 134.805 469.158V474H132.951V469.32C132.951 468.006 132.249 467.232 131.169 467.232ZM142.978 470.112V465.594H144.832V474H142.978V472.776C142.492 473.73 141.358 474.18 140.476 474.18C138.406 474.18 137.2 472.884 137.218 470.49V465.594H139.072V470.274C139.072 471.66 139.81 472.38 140.818 472.38C141.898 472.38 142.978 471.786 142.978 470.112ZM147.415 474V461.022H149.269V474H147.415ZM158.414 474V472.794C157.838 473.712 156.668 474.18 155.588 474.18C153.338 474.18 151.322 472.47 151.322 469.788C151.322 467.106 153.338 465.414 155.588 465.414C156.596 465.414 157.838 465.828 158.414 466.782V465.594H160.25V474H158.414ZM153.23 469.77C153.23 471.318 154.418 472.38 155.804 472.38C157.172 472.38 158.396 471.426 158.396 469.77C158.396 468.132 157.064 467.214 155.804 467.214C154.418 467.214 153.23 468.222 153.23 469.77Z" fill="#010101"/>
<path d="M88.62 282V269.598H90.528V280.254H95.496V282H88.62ZM100.972 280.38C102.376 280.38 103.528 279.354 103.528 277.77C103.528 276.24 102.376 275.232 100.972 275.232C99.5858 275.232 98.4338 276.24 98.4338 277.77C98.4338 279.354 99.5858 280.38 100.972 280.38ZM100.972 282.18C98.5958 282.18 96.5978 280.434 96.5978 277.77C96.5978 275.106 98.5958 273.414 100.972 273.414C103.366 273.414 105.382 275.106 105.382 277.77C105.382 280.434 103.366 282.18 100.972 282.18ZM109.293 277.482V282H107.439V273.594H109.293V274.854C109.779 273.9 110.949 273.414 111.867 273.414C113.901 273.414 115.071 274.71 115.071 277.104V282H113.217V277.32C113.217 275.97 112.533 275.232 111.453 275.232C110.355 275.232 109.293 275.826 109.293 277.482ZM124.115 277.806C124.115 276.132 122.909 275.214 121.523 275.214C120.119 275.214 118.967 276.276 118.967 277.806C118.967 279.39 120.119 280.398 121.523 280.398C122.783 280.398 124.115 279.462 124.115 277.806ZM118.985 283.062C119.435 283.944 120.425 284.466 121.343 284.466C123.053 284.466 124.151 283.512 124.151 281.154V280.722C123.683 281.676 122.441 282.18 121.307 282.18C119.039 282.18 117.059 280.488 117.059 277.824C117.059 275.16 119.039 273.414 121.307 273.414C122.459 273.414 123.629 273.918 124.151 274.836V273.594H125.969V280.758C125.969 284.628 124.169 286.194 121.343 286.194C119.705 286.194 118.247 285.348 117.455 283.836C117.797 283.692 118.643 283.206 118.985 283.062ZM136.559 277.77C136.559 277.968 136.559 278.256 136.541 278.454H129.863C130.061 279.75 131.069 280.56 132.437 280.56C133.373 280.56 134.291 280.128 134.723 279.354L136.235 280.02C135.515 281.514 133.913 282.18 132.347 282.18C129.971 282.18 128.027 280.434 128.027 277.77C128.027 275.106 129.971 273.414 132.347 273.414C134.723 273.414 136.559 275.106 136.559 277.77ZM129.863 277.104H134.741C134.543 275.79 133.625 275.034 132.347 275.034C131.051 275.034 130.061 275.808 129.863 277.104ZM140.824 282L137.314 273.594H139.276L141.688 279.642L144.064 273.594H146.044L142.534 282H140.824ZM149.405 273.594V282H147.569V273.594H149.405ZM147.245 270.192C147.245 269.526 147.821 269.022 148.487 269.022C149.189 269.022 149.711 269.526 149.711 270.192C149.711 270.858 149.189 271.362 148.487 271.362C147.821 271.362 147.245 270.858 147.245 270.192ZM154.519 270.408V273.594H156.301V275.124H154.519V282H152.665V275.124H151.153V273.594H152.665V270.408H154.519ZM165.642 273.594L160.44 286.104H158.496L160.314 281.604L156.984 273.594H158.964L161.304 279.354L163.662 273.594H165.642Z" fill="#010101"/>
<path d="M71.57 559.362H68.546V563.7H71.498C72.866 563.7 73.478 562.602 73.478 561.54C73.478 560.496 72.92 559.362 71.57 559.362ZM66.62 570V557.598H71.606C74.27 557.598 75.386 559.578 75.386 561.54C75.386 563.502 74.27 565.446 71.606 565.446H68.546V570H66.62ZM84.9052 565.77C84.9052 565.968 84.9052 566.256 84.8872 566.454H78.2092C78.4072 567.75 79.4152 568.56 80.7832 568.56C81.7192 568.56 82.6372 568.128 83.0692 567.354L84.5812 568.02C83.8612 569.514 82.2592 570.18 80.6932 570.18C78.3172 570.18 76.3732 568.434 76.3732 565.77C76.3732 563.106 78.3172 561.414 80.6932 561.414C83.0692 561.414 84.9052 563.106 84.9052 565.77ZM78.2092 565.104H83.0872C82.8892 563.79 81.9712 563.034 80.6932 563.034C79.3972 563.034 78.4072 563.808 78.2092 565.104ZM88.7164 566.976V570H86.8624V561.594H88.7164V563.52C89.1484 562.008 89.9584 561.414 91.0204 561.414C91.6144 561.414 92.2444 561.54 92.5144 561.738L92.2084 563.448C91.7224 563.214 91.3264 563.16 90.9664 563.16C89.3824 563.16 88.7164 564.744 88.7164 566.976ZM97.1479 566.634L96.0139 566.364C94.2139 565.878 93.5659 564.996 93.6919 563.628C93.7819 562.386 95.1679 561.414 96.6979 561.414C98.1739 561.414 99.6679 562.098 99.7579 563.898H97.9939C97.9219 563.268 97.3459 562.998 96.7699 562.998C96.2839 562.998 95.7799 563.178 95.5819 563.466C95.4379 563.7 95.4199 563.952 95.5099 564.222C95.6359 564.564 96.0859 564.744 96.5359 564.87L97.8319 565.194C99.6319 565.626 100.028 566.814 100.028 567.642C100.028 569.262 98.6059 570.18 96.6799 570.18C95.0959 570.18 93.5119 569.208 93.4579 567.426H95.1679C95.2579 568.146 95.8339 568.632 96.8239 568.632C97.6699 568.632 98.3179 568.254 98.3179 567.624C98.3179 567.066 97.7779 566.778 97.1479 566.634ZM105.884 568.38C107.288 568.38 108.44 567.354 108.44 565.77C108.44 564.24 107.288 563.232 105.884 563.232C104.498 563.232 103.346 564.24 103.346 565.77C103.346 567.354 104.498 568.38 105.884 568.38ZM105.884 570.18C103.508 570.18 101.51 568.434 101.51 565.77C101.51 563.106 103.508 561.414 105.884 561.414C108.278 561.414 110.294 563.106 110.294 565.77C110.294 568.434 108.278 570.18 105.884 570.18ZM114.205 565.482V570H112.351V561.594H114.205V562.854C114.691 561.9 115.861 561.414 116.779 561.414C118.813 561.414 119.983 562.71 119.983 565.104V570H118.129V565.32C118.129 563.97 117.445 563.232 116.365 563.232C115.267 563.232 114.205 563.826 114.205 565.482ZM129.045 570V568.794C128.469 569.712 127.299 570.18 126.219 570.18C123.969 570.18 121.953 568.47 121.953 565.788C121.953 563.106 123.969 561.414 126.219 561.414C127.227 561.414 128.469 561.828 129.045 562.782V561.594H130.881V570H129.045ZM123.861 565.77C123.861 567.318 125.049 568.38 126.435 568.38C127.803 568.38 129.027 567.426 129.027 565.77C129.027 564.132 127.695 563.214 126.435 563.214C125.049 563.214 123.861 564.222 123.861 565.77ZM133.48 570V557.022H135.334V570H133.48ZM139.763 561.594V570H137.927V561.594H139.763ZM137.603 558.192C137.603 557.526 138.179 557.022 138.845 557.022C139.547 557.022 140.069 557.526 140.069 558.192C140.069 558.858 139.547 559.362 138.845 559.362C138.179 559.362 137.603 558.858 137.603 558.192ZM145.453 566.634L144.319 566.364C142.519 565.878 141.871 564.996 141.997 563.628C142.087 562.386 143.473 561.414 145.003 561.414C146.479 561.414 147.973 562.098 148.063 563.898H146.299C146.227 563.268 145.651 562.998 145.075 562.998C144.589 562.998 144.085 563.178 143.887 563.466C143.743 563.7 143.725 563.952 143.815 564.222C143.941 564.564 144.391 564.744 144.841 564.87L146.137 565.194C147.937 565.626 148.333 566.814 148.333 567.642C148.333 569.262 146.911 570.18 144.985 570.18C143.401 570.18 141.817 569.208 141.763 567.426H143.473C143.563 568.146 144.139 568.632 145.129 568.632C145.975 568.632 146.623 568.254 146.623 567.624C146.623 567.066 146.083 566.778 145.453 566.634ZM156.907 570V568.794C156.331 569.712 155.161 570.18 154.081 570.18C151.831 570.18 149.815 568.47 149.815 565.788C149.815 563.106 151.831 561.414 154.081 561.414C155.089 561.414 156.331 561.828 156.907 562.782V561.594H158.743V570H156.907ZM151.723 565.77C151.723 567.318 152.911 568.38 154.297 568.38C155.665 568.38 156.889 567.426 156.889 565.77C156.889 564.132 155.557 563.214 154.297 563.214C152.911 563.214 151.723 564.222 151.723 565.77ZM163.861 558.408V561.594H165.643V563.124H163.861V570H162.007V563.124H160.495V561.594H162.007V558.408H163.861ZM169.224 561.594V570H167.388V561.594H169.224ZM167.064 558.192C167.064 557.526 167.64 557.022 168.306 557.022C169.008 557.022 169.53 557.526 169.53 558.192C169.53 558.858 169.008 559.362 168.306 559.362C167.64 559.362 167.064 558.858 167.064 558.192ZM175.651 568.38C177.055 568.38 178.207 567.354 178.207 565.77C178.207 564.24 177.055 563.232 175.651 563.232C174.265 563.232 173.113 564.24 173.113 565.77C173.113 567.354 174.265 568.38 175.651 568.38ZM175.651 570.18C173.275 570.18 171.277 568.434 171.277 565.77C171.277 563.106 173.275 561.414 175.651 561.414C178.045 561.414 180.061 563.106 180.061 565.77C180.061 568.434 178.045 570.18 175.651 570.18ZM183.972 565.482V570H182.118V561.594H183.972V562.854C184.458 561.9 185.628 561.414 186.546 561.414C188.58 561.414 189.75 562.71 189.75 565.104V570H187.896V565.32C187.896 563.97 187.212 563.232 186.132 563.232C185.034 563.232 183.972 563.826 183.972 565.482Z" fill="#010101"/>
<path d="M60.62 378V365.598H68.09V367.362H62.528V371.034H67.388V372.78H62.528V376.254H68.27V378H60.62ZM72.818 366.408V369.594H74.6V371.124H72.818V378H70.964V371.124H69.452V369.594H70.964V366.408H72.818ZM78.1988 373.482V378H76.3448V365.022H78.1988V370.872C78.6848 369.846 79.9808 369.414 80.8628 369.414C83.0228 369.414 84.2648 370.818 84.2648 373.212V378H82.4108V373.32C82.4108 372.006 81.6008 371.232 80.5388 371.232C79.4768 371.232 78.1988 371.826 78.1988 373.482ZM88.5871 369.594V378H86.7511V369.594H88.5871ZM86.4271 366.192C86.4271 365.526 87.0031 365.022 87.6691 365.022C88.3711 365.022 88.8931 365.526 88.8931 366.192C88.8931 366.858 88.3711 367.362 87.6691 367.362C87.0031 367.362 86.4271 366.858 86.4271 366.192ZM90.6408 373.77C90.6408 371.106 92.7108 369.414 95.1228 369.414C96.4728 369.414 97.6608 369.936 98.4528 370.872L97.0128 372.024C96.5628 371.502 95.8608 371.214 95.1228 371.214C93.7188 371.214 92.4768 372.204 92.4768 373.77C92.4768 375.336 93.7188 376.398 95.1228 376.398C95.8608 376.398 96.5628 376.092 97.0128 375.57L98.4708 376.704C97.6788 377.64 96.4908 378.18 95.1228 378.18C92.7108 378.18 90.6408 376.434 90.6408 373.77ZM106.803 378V376.794C106.227 377.712 105.057 378.18 103.977 378.18C101.727 378.18 99.7111 376.47 99.7111 373.788C99.7111 371.106 101.727 369.414 103.977 369.414C104.985 369.414 106.227 369.828 106.803 370.782V369.594H108.639V378H106.803ZM101.619 373.77C101.619 375.318 102.807 376.38 104.193 376.38C105.561 376.38 106.785 375.426 106.785 373.77C106.785 372.132 105.453 371.214 104.193 371.214C102.807 371.214 101.619 372.222 101.619 373.77ZM111.237 378V365.022H113.091V378H111.237ZM125.529 367.362H122.505V371.7H125.457C126.825 371.7 127.437 370.602 127.437 369.54C127.437 368.496 126.879 367.362 125.529 367.362ZM120.579 378V365.598H125.565C128.229 365.598 129.345 367.578 129.345 369.54C129.345 371.502 128.229 373.446 125.565 373.446H122.505V378H120.579ZM132.937 374.976V378H131.083V369.594H132.937V371.52C133.369 370.008 134.179 369.414 135.241 369.414C135.835 369.414 136.465 369.54 136.735 369.738L136.429 371.448C135.943 371.214 135.547 371.16 135.187 371.16C133.603 371.16 132.937 372.744 132.937 374.976ZM144.649 378V376.794C144.073 377.712 142.903 378.18 141.823 378.18C139.573 378.18 137.557 376.47 137.557 373.788C137.557 371.106 139.573 369.414 141.823 369.414C142.831 369.414 144.073 369.828 144.649 370.782V369.594H146.485V378H144.649ZM139.465 373.77C139.465 375.318 140.653 376.38 142.039 376.38C143.407 376.38 144.631 375.426 144.631 373.77C144.631 372.132 143.299 371.214 142.039 371.214C140.653 371.214 139.465 372.222 139.465 373.77ZM148.543 373.77C148.543 371.106 150.613 369.414 153.025 369.414C154.375 369.414 155.563 369.936 156.355 370.872L154.915 372.024C154.465 371.502 153.763 371.214 153.025 371.214C151.621 371.214 150.379 372.204 150.379 373.77C150.379 375.336 151.621 376.398 153.025 376.398C153.763 376.398 154.465 376.092 154.915 375.57L156.373 376.704C155.581 377.64 154.393 378.18 153.025 378.18C150.613 378.18 148.543 376.434 148.543 373.77ZM160.849 366.408V369.594H162.631V371.124H160.849V378H158.995V371.124H157.483V369.594H158.995V366.408H160.849ZM166.212 369.594V378H164.376V369.594H166.212ZM164.052 366.192C164.052 365.526 164.628 365.022 165.294 365.022C165.996 365.022 166.518 365.526 166.518 366.192C166.518 366.858 165.996 367.362 165.294 367.362C164.628 367.362 164.052 366.858 164.052 366.192ZM168.266 373.77C168.266 371.106 170.336 369.414 172.748 369.414C174.098 369.414 175.286 369.936 176.078 370.872L174.638 372.024C174.188 371.502 173.486 371.214 172.748 371.214C171.344 371.214 170.102 372.204 170.102 373.77C170.102 375.336 171.344 376.398 172.748 376.398C173.486 376.398 174.188 376.092 174.638 375.57L176.096 376.704C175.304 377.64 174.116 378.18 172.748 378.18C170.336 378.18 168.266 376.434 168.266 373.77ZM185.868 373.77C185.868 373.968 185.868 374.256 185.85 374.454H179.172C179.37 375.75 180.378 376.56 181.746 376.56C182.682 376.56 183.6 376.128 184.032 375.354L185.544 376.02C184.824 377.514 183.222 378.18 181.656 378.18C179.28 378.18 177.336 376.434 177.336 373.77C177.336 371.106 179.28 369.414 181.656 369.414C184.032 369.414 185.868 371.106 185.868 373.77ZM179.172 373.104H184.05C183.852 371.79 182.934 371.034 181.656 371.034C180.36 371.034 179.37 371.808 179.172 373.104ZM190.921 374.634L189.787 374.364C187.987 373.878 187.339 372.996 187.465 371.628C187.555 370.386 188.941 369.414 190.471 369.414C191.947 369.414 193.441 370.098 193.531 371.898H191.767C191.695 371.268 191.119 370.998 190.543 370.998C190.057 370.998 189.553 371.178 189.355 371.466C189.211 371.7 189.193 371.952 189.283 372.222C189.409 372.564 189.859 372.744 190.309 372.87L191.605 373.194C193.405 373.626 193.801 374.814 193.801 375.642C193.801 377.262 192.379 378.18 190.453 378.18C188.869 378.18 187.285 377.208 187.231 375.426H188.941C189.031 376.146 189.607 376.632 190.597 376.632C191.443 376.632 192.091 376.254 192.091 375.624C192.091 375.066 191.551 374.778 190.921 374.634Z" fill="#010101"/>
<path d="M73.57 655.362H70.546V659.7H73.498C74.866 659.7 75.478 658.602 75.478 657.54C75.478 656.496 74.92 655.362 73.57 655.362ZM68.62 666V653.598H73.606C76.27 653.598 77.386 655.578 77.386 657.54C77.386 659.502 76.27 661.446 73.606 661.446H70.546V666H68.62ZM80.9781 662.976V666H79.1241V657.594H80.9781V659.52C81.4101 658.008 82.2201 657.414 83.2821 657.414C83.8761 657.414 84.5061 657.54 84.7761 657.738L84.4701 659.448C83.9841 659.214 83.5881 659.16 83.2281 659.16C81.6441 659.16 80.9781 660.744 80.9781 662.976ZM88.1496 657.594V666H86.3136V657.594H88.1496ZM85.9896 654.192C85.9896 653.526 86.5656 653.022 87.2316 653.022C87.9336 653.022 88.4556 653.526 88.4556 654.192C88.4556 654.858 87.9336 655.362 87.2316 655.362C86.5656 655.362 85.9896 654.858 85.9896 654.192ZM90.2033 661.77C90.2033 659.106 92.2733 657.414 94.6853 657.414C96.0353 657.414 97.2233 657.936 98.0153 658.872L96.5753 660.024C96.1253 659.502 95.4233 659.214 94.6853 659.214C93.2813 659.214 92.0393 660.204 92.0393 661.77C92.0393 663.336 93.2813 664.398 94.6853 664.398C95.4233 664.398 96.1253 664.092 96.5753 663.57L98.0333 664.704C97.2413 665.64 96.0533 666.18 94.6853 666.18C92.2733 666.18 90.2033 664.434 90.2033 661.77ZM107.806 661.77C107.806 661.968 107.806 662.256 107.788 662.454H101.11C101.308 663.75 102.316 664.56 103.684 664.56C104.62 664.56 105.538 664.128 105.97 663.354L107.482 664.02C106.762 665.514 105.16 666.18 103.594 666.18C101.218 666.18 99.2736 664.434 99.2736 661.77C99.2736 659.106 101.218 657.414 103.594 657.414C105.97 657.414 107.806 659.106 107.806 661.77ZM101.11 661.104H105.988C105.79 659.79 104.872 659.034 103.594 659.034C102.298 659.034 101.308 659.808 101.11 661.104ZM119.127 653.022V654.804H118.209C116.985 654.804 116.715 655.74 116.715 656.82V657.594H118.605V659.124H116.715V666H114.843V659.124H113.241V657.594H114.843V656.82C114.843 654.516 115.905 653.022 118.209 653.022H119.127ZM124.038 664.38C125.442 664.38 126.594 663.354 126.594 661.77C126.594 660.24 125.442 659.232 124.038 659.232C122.652 659.232 121.5 660.24 121.5 661.77C121.5 663.354 122.652 664.38 124.038 664.38ZM124.038 666.18C121.662 666.18 119.664 664.434 119.664 661.77C119.664 659.106 121.662 657.414 124.038 657.414C126.432 657.414 128.448 659.106 128.448 661.77C128.448 664.434 126.432 666.18 124.038 666.18ZM132.359 662.976V666H130.505V657.594H132.359V659.52C132.791 658.008 133.601 657.414 134.663 657.414C135.257 657.414 135.887 657.54 136.157 657.738L135.851 659.448C135.365 659.214 134.969 659.16 134.609 659.16C133.025 659.16 132.359 660.744 132.359 662.976ZM140.434 653.598H142.432L145.078 662.814L147.742 653.598H149.722L145.978 666H144.196L140.434 653.598ZM157.166 666V664.794C156.59 665.712 155.42 666.18 154.34 666.18C152.09 666.18 150.074 664.47 150.074 661.788C150.074 659.106 152.09 657.414 154.34 657.414C155.348 657.414 156.59 657.828 157.166 658.782V657.594H159.002V666H157.166ZM151.982 661.77C151.982 663.318 153.17 664.38 154.556 664.38C155.924 664.38 157.148 663.426 157.148 661.77C157.148 660.132 155.816 659.214 154.556 659.214C153.17 659.214 151.982 660.222 151.982 661.77ZM161.601 666V653.022H163.455V666H161.601ZM171.718 662.112V657.594H173.572V666H171.718V664.776C171.232 665.73 170.098 666.18 169.216 666.18C167.146 666.18 165.94 664.884 165.958 662.49V657.594H167.812V662.274C167.812 663.66 168.55 664.38 169.558 664.38C170.638 664.38 171.718 663.786 171.718 662.112ZM184.147 661.77C184.147 661.968 184.147 662.256 184.129 662.454H177.451C177.649 663.75 178.657 664.56 180.025 664.56C180.961 664.56 181.879 664.128 182.311 663.354L183.823 664.02C183.103 665.514 181.501 666.18 179.935 666.18C177.559 666.18 175.615 664.434 175.615 661.77C175.615 659.106 177.559 657.414 179.935 657.414C182.311 657.414 184.147 659.106 184.147 661.77ZM177.451 661.104H182.329C182.131 659.79 181.213 659.034 179.935 659.034C178.639 659.034 177.649 659.808 177.451 661.104Z" fill="#010101"/>
<path d="M75.39 751.362H72.546V755.7H75.318C76.704 755.7 77.262 754.602 77.262 753.54C77.262 752.496 76.722 751.362 75.39 751.362ZM76.038 757.374L79.296 762H76.974L73.878 757.446H72.546V762H70.62V749.598H75.462C78.126 749.598 79.242 751.578 79.242 753.54C79.242 755.34 78.324 757.14 76.038 757.374ZM83.2238 753.594V762H81.3878V753.594H83.2238ZM81.0638 750.192C81.0638 749.526 81.6398 749.022 82.3058 749.022C83.0078 749.022 83.5298 749.526 83.5298 750.192C83.5298 750.858 83.0078 751.362 82.3058 751.362C81.6398 751.362 81.0638 750.858 81.0638 750.192ZM88.9135 758.634L87.7795 758.364C85.9795 757.878 85.3315 756.996 85.4575 755.628C85.5475 754.386 86.9335 753.414 88.4635 753.414C89.9395 753.414 91.4335 754.098 91.5235 755.898H89.7595C89.6875 755.268 89.1115 754.998 88.5355 754.998C88.0495 754.998 87.5455 755.178 87.3475 755.466C87.2035 755.7 87.1855 755.952 87.2755 756.222C87.4015 756.564 87.8515 756.744 88.3015 756.87L89.5975 757.194C91.3975 757.626 91.7935 758.814 91.7935 759.642C91.7935 761.262 90.3715 762.18 88.4455 762.18C86.8615 762.18 85.2775 761.208 85.2235 759.426H86.9335C87.0235 760.146 87.5995 760.632 88.5895 760.632C89.4355 760.632 90.0835 760.254 90.0835 759.624C90.0835 759.066 89.5435 758.778 88.9135 758.634ZM99.2335 762L95.6515 758.094V762H93.8155V749.022H95.6515V756.366L98.3155 753.594H100.8L97.2175 757.248L101.61 762H99.2335ZM102.286 758.58V756.906H108.568V758.58H102.286ZM111.384 762V749.598H118.746V751.362H113.292V755.034H117.612V756.78H113.292V762H111.384ZM121.791 758.976V762H119.937V753.594H121.791V755.52C122.223 754.008 123.033 753.414 124.095 753.414C124.689 753.414 125.319 753.54 125.589 753.738L125.283 755.448C124.797 755.214 124.401 755.16 124.041 755.16C122.457 755.16 121.791 756.744 121.791 758.976ZM134.942 757.77C134.942 757.968 134.942 758.256 134.924 758.454H128.246C128.444 759.75 129.452 760.56 130.82 760.56C131.756 760.56 132.674 760.128 133.106 759.354L134.618 760.02C133.898 761.514 132.296 762.18 130.73 762.18C128.354 762.18 126.41 760.434 126.41 757.77C126.41 755.106 128.354 753.414 130.73 753.414C133.106 753.414 134.942 755.106 134.942 757.77ZM128.246 757.104H133.124C132.926 755.79 132.008 755.034 130.73 755.034C129.434 755.034 128.444 755.808 128.246 757.104ZM144.892 757.77C144.892 757.968 144.892 758.256 144.874 758.454H138.196C138.394 759.75 139.402 760.56 140.77 760.56C141.706 760.56 142.624 760.128 143.056 759.354L144.568 760.02C143.848 761.514 142.246 762.18 140.68 762.18C138.304 762.18 136.36 760.434 136.36 757.77C136.36 755.106 138.304 753.414 140.68 753.414C143.056 753.414 144.892 755.106 144.892 757.77ZM138.196 757.104H143.074C142.876 755.79 141.958 755.034 140.68 755.034C139.384 755.034 138.394 755.808 138.196 757.104ZM150.627 751.38V749.598H159.879V751.38H156.225V762H154.281V751.38H150.627ZM161.974 758.976V762H160.12V753.594H161.974V755.52C162.406 754.008 163.216 753.414 164.278 753.414C164.872 753.414 165.502 753.54 165.772 753.738L165.466 755.448C164.98 755.214 164.584 755.16 164.224 755.16C162.64 755.16 161.974 756.744 161.974 758.976ZM169.146 753.594V762H167.31V753.594H169.146ZM166.986 750.192C166.986 749.526 167.562 749.022 168.228 749.022C168.93 749.022 169.452 749.526 169.452 750.192C169.452 750.858 168.93 751.362 168.228 751.362C167.562 751.362 166.986 750.858 166.986 750.192ZM178.291 762V760.794C177.715 761.712 176.545 762.18 175.465 762.18C173.215 762.18 171.199 760.47 171.199 757.788C171.199 755.106 173.215 753.414 175.465 753.414C176.473 753.414 177.715 753.828 178.291 754.782V753.594H180.127V762H178.291ZM173.107 757.77C173.107 759.318 174.295 760.38 175.681 760.38C177.049 760.38 178.273 759.426 178.273 757.77C178.273 756.132 176.941 755.214 175.681 755.214C174.295 755.214 173.107 756.222 173.107 757.77ZM182.726 762V749.022H184.58V762H182.726Z" fill="#010101"/>
<path d="M72.9 854.4H74.808C74.862 855.408 75.78 856.434 77.274 856.434C78.732 856.434 79.488 855.66 79.614 854.742C79.686 853.59 78.804 852.996 77.652 852.726L76.086 852.33C73.422 851.61 73.008 850.098 73.008 849C73.008 846.876 74.916 845.454 77.094 845.454C79.398 845.454 81.126 846.858 81.126 849.126H79.218C79.218 847.974 78.354 847.254 77.058 847.254C75.906 847.254 74.916 847.956 74.916 848.964C74.916 849.45 75.096 850.206 76.572 850.584L78.156 850.998C80.676 851.664 81.702 853.05 81.504 854.85C81.306 856.794 79.632 858.18 77.274 858.18C74.7 858.18 72.9 856.416 72.9 854.4ZM89.214 854.112V849.594H91.068V858H89.214V856.776C88.728 857.73 87.594 858.18 86.712 858.18C84.642 858.18 83.436 856.884 83.454 854.49V849.594H85.308V854.274C85.308 855.66 86.046 856.38 87.054 856.38C88.134 856.38 89.214 855.786 89.214 854.112ZM96.7475 854.634L95.6135 854.364C93.8135 853.878 93.1655 852.996 93.2915 851.628C93.3815 850.386 94.7675 849.414 96.2975 849.414C97.7735 849.414 99.2675 850.098 99.3575 851.898H97.5935C97.5215 851.268 96.9455 850.998 96.3695 850.998C95.8835 850.998 95.3795 851.178 95.1815 851.466C95.0375 851.7 95.0195 851.952 95.1095 852.222C95.2355 852.564 95.6855 852.744 96.1355 852.87L97.4315 853.194C99.2315 853.626 99.6275 854.814 99.6275 855.642C99.6275 857.262 98.2055 858.18 96.2795 858.18C94.6955 858.18 93.1115 857.208 93.0575 855.426H94.7675C94.8575 856.146 95.4335 856.632 96.4235 856.632C97.2695 856.632 97.9175 856.254 97.9175 855.624C97.9175 855.066 97.3775 854.778 96.7475 854.634ZM104.17 846.408V849.594H105.952V851.124H104.17V858H102.316V851.124H100.804V849.594H102.316V846.408H104.17ZM114.125 858V856.794C113.549 857.712 112.379 858.18 111.299 858.18C109.049 858.18 107.033 856.47 107.033 853.788C107.033 851.106 109.049 849.414 111.299 849.414C112.307 849.414 113.549 849.828 114.125 850.782V849.594H115.961V858H114.125ZM108.941 853.77C108.941 855.318 110.129 856.38 111.515 856.38C112.883 856.38 114.107 855.426 114.107 853.77C114.107 852.132 112.775 851.214 111.515 851.214C110.129 851.214 108.941 852.222 108.941 853.77ZM120.396 849.594V858H118.56V849.594H120.396ZM118.236 846.192C118.236 845.526 118.812 845.022 119.478 845.022C120.18 845.022 120.702 845.526 120.702 846.192C120.702 846.858 120.18 847.362 119.478 847.362C118.812 847.362 118.236 846.858 118.236 846.192ZM124.843 853.482V858H122.989V849.594H124.843V850.854C125.329 849.9 126.499 849.414 127.417 849.414C129.451 849.414 130.621 850.71 130.621 853.104V858H128.767V853.32C128.767 851.97 128.083 851.232 127.003 851.232C125.905 851.232 124.843 851.826 124.843 853.482ZM139.684 858V856.794C139.108 857.712 137.938 858.18 136.858 858.18C134.608 858.18 132.592 856.47 132.592 853.788C132.592 851.106 134.608 849.414 136.858 849.414C137.866 849.414 139.108 849.828 139.684 850.782V849.594H141.52V858H139.684ZM134.5 853.77C134.5 855.318 135.688 856.38 137.074 856.38C138.442 856.38 139.666 855.426 139.666 853.77C139.666 852.132 138.334 851.214 137.074 851.214C135.688 851.214 134.5 852.222 134.5 853.77ZM145.99 853.77C145.99 855.408 147.196 856.38 148.564 856.38C149.968 856.38 151.102 855.318 151.102 853.77C151.102 852.222 149.968 851.214 148.564 851.214C147.304 851.214 145.99 852.132 145.99 853.77ZM145.972 858H144.118V845.022H145.972V850.8C146.494 849.882 147.592 849.414 148.798 849.414C151.084 849.414 152.992 851.106 152.992 853.806C152.992 856.452 151.03 858.18 148.78 858.18C147.628 858.18 146.494 857.694 145.972 856.776V858ZM156.905 849.594V858H155.069V849.594H156.905ZM154.745 846.192C154.745 845.526 155.321 845.022 155.987 845.022C156.689 845.022 157.211 845.526 157.211 846.192C157.211 846.858 156.689 847.362 155.987 847.362C155.321 847.362 154.745 846.858 154.745 846.192ZM159.499 858V845.022H161.353V858H159.499ZM165.782 849.594V858H163.946V849.594H165.782ZM163.622 846.192C163.622 845.526 164.198 845.022 164.864 845.022C165.566 845.022 166.088 845.526 166.088 846.192C166.088 846.858 165.566 847.362 164.864 847.362C164.198 847.362 163.622 846.858 163.622 846.192ZM170.896 846.408V849.594H172.678V851.124H170.896V858H169.042V851.124H167.53V849.594H169.042V846.408H170.896ZM182.019 849.594L176.817 862.104H174.873L176.691 857.604L173.361 849.594H175.341L177.681 855.354L180.039 849.594H182.019Z" fill="#010101"/>
<path d="M725.301 173.1L720.99 168.648L713.051 176.548L705.151 168.648L700.699 173.1L708.677 181L700.699 188.9L705.151 193.352L713.051 185.452L720.99 193.352L725.301 188.9L717.401 181L725.301 173.1Z" fill="#010101" fill-opacity="0.7"/>
<path d="M725.301 269.1L720.99 264.648L713.051 272.548L705.151 264.648L700.699 269.1L708.677 277L700.699 284.9L705.151 289.352L713.051 281.452L720.99 289.352L725.301 284.9L717.401 277L725.301 269.1Z" fill="#010101" fill-opacity="0.7"/>
<path d="M725.301 365.1L720.99 360.648L713.051 368.548L705.151 360.648L700.699 365.1L708.677 373L700.699 380.9L705.151 385.352L713.051 377.452L720.99 385.352L725.301 380.9L717.401 373L725.301 365.1Z" fill="#010101" fill-opacity="0.7"/>
<path d="M725.301 461.1L720.99 456.648L713.051 464.548L705.151 456.648L700.699 461.1L708.677 469L700.699 476.9L705.151 481.352L713.051 473.452L720.99 481.352L725.301 476.9L717.401 469L725.301 461.1Z" fill="#010101" fill-opacity="0.7"/>
<path d="M725.301 557.1L720.99 552.648L713.051 560.548L705.151 552.648L700.699 557.1L708.677 565L700.699 572.9L705.151 577.352L713.051 569.452L720.99 577.352L725.301 572.9L717.401 565L725.301 557.1Z" fill="#010101" fill-opacity="0.7"/>
<path d="M725.301 653.1L720.99 648.648L713.051 656.548L705.151 648.648L700.699 653.1L708.677 661L700.699 668.9L705.151 673.352L713.051 665.452L720.99 673.352L725.301 668.9L717.401 661L725.301 653.1Z" fill="#010101" fill-opacity="0.7"/>
<path d="M725.301 749.1L720.99 744.648L713.051 752.548L705.151 744.648L700.699 749.1L708.677 757L700.699 764.9L705.151 769.352L713.051 761.452L720.99 769.352L725.301 764.9L717.401 757L725.301 749.1Z" fill="#010101" fill-opacity="0.7"/>
<path d="M725.301 845.1L720.99 840.648L713.051 848.548L705.151 840.648L700.699 845.1L708.677 853L700.699 860.9L705.151 865.352L713.051 857.452L720.99 865.352L725.301 860.9L717.401 853L725.301 845.1Z" fill="#010101" fill-opacity="0.7"/>
<path fill-rule="evenodd" clip-rule="evenodd" d="M424 191C425.97 191 427.92 190.612 429.74 189.858C431.56 189.104 433.214 187.999 434.607 186.607C435.999 185.214 437.104 183.56 437.858 181.74C438.612 179.92 439 177.97 439 176C439 174.03 438.612 172.08 437.858 170.26C437.104 168.44 435.999 166.786 434.607 165.393C433.214 164.001 431.56 162.896 429.74 162.142C427.92 161.388 425.97 161 424 161C420.022 161 416.206 162.58 413.393 165.393C410.58 168.206 409 172.022 409 176C409 179.978 410.58 183.794 413.393 186.607C416.206 189.42 420.022 191 424 191ZM423.613 182.067L431.947 172.067L429.387 169.933L422.22 178.532L418.512 174.822L416.155 177.178L421.155 182.178L422.445 183.468L423.613 182.067Z" fill="white"/>
<path fill-rule="evenodd" clip-rule="evenodd" d="M424 291C425.97 291 427.92 290.612 429.74 289.858C431.56 289.104 433.214 287.999 434.607 286.607C435.999 285.214 437.104 283.56 437.858 281.74C438.612 279.92 439 277.97 439 276C439 274.03 438.612 272.08 437.858 270.26C437.104 268.44 435.999 266.786 434.607 265.393C433.214 264.001 431.56 262.896 429.74 262.142C427.92 261.388 425.97 261 424 261C420.022 261 416.206 262.58 413.393 265.393C410.58 268.206 409 272.022 409 276C409 279.978 410.58 283.794 413.393 286.607C416.206 289.42 420.022 291 424 291ZM423.613 282.067L431.947 272.067L429.387 269.933L422.22 278.532L418.512 274.822L416.155 277.178L421.155 282.178L422.445 283.468L423.613 282.067Z" fill="white"/>
<path fill-rule="evenodd" clip-rule="evenodd" d="M424 388C425.97 388 427.92 387.612 429.74 386.858C431.56 386.104 433.214 384.999 434.607 383.607C435.999 382.214 437.104 380.56 437.858 378.74C438.612 376.92 439 374.97 439 373C439 371.03 438.612 369.08 437.858 367.26C437.104 365.44 435.999 363.786 434.607 362.393C433.214 361.001 431.56 359.896 429.74 359.142C427.92 358.388 425.97 358 424 358C420.022 358 416.206 359.58 413.393 362.393C410.58 365.206 409 369.022 409 373C409 376.978 410.58 380.794 413.393 383.607C416.206 386.42 420.022 388 424 388ZM423.613 379.067L431.947 369.067L429.387 366.933L422.22 375.532L418.512 371.822L416.155 374.178L421.155 379.178L422.445 380.468L423.613 379.067Z" fill="white"/>
<path fill-rule="evenodd" clip-rule="evenodd" d="M424 484C425.97 484 427.92 483.612 429.74 482.858C431.56 482.104 433.214 480.999 434.607 479.607C435.999 478.214 437.104 476.56 437.858 474.74C438.612 472.92 439 470.97 439 469C439 467.03 438.612 465.08 437.858 463.26C437.104 461.44 435.999 459.786 434.607 458.393C433.214 457.001 431.56 455.896 429.74 455.142C427.92 454.388 425.97 454 424 454C420.022 454 416.206 455.58 413.393 458.393C410.58 461.206 409 465.022 409 469C409 472.978 410.58 476.794 413.393 479.607C416.206 482.42 420.022 484 424 484ZM423.613 475.067L431.947 465.067L429.387 462.933L422.22 471.532L418.512 467.822L416.155 470.178L421.155 475.178L422.445 476.468L423.613 475.067Z" fill="white"/>
<path fill-rule="evenodd" clip-rule="evenodd" d="M424 580C425.97 580 427.92 579.612 429.74 578.858C431.56 578.104 433.214 576.999 434.607 575.607C435.999 574.214 437.104 572.56 437.858 570.74C438.612 568.92 439 566.97 439 565C439 563.03 438.612 561.08 437.858 559.26C437.104 557.44 435.999 555.786 434.607 554.393C433.214 553.001 431.56 551.896 429.74 551.142C427.92 550.388 425.97 550 424 550C420.022 550 416.206 551.58 413.393 554.393C410.58 557.206 409 561.022 409 565C409 568.978 410.58 572.794 413.393 575.607C416.206 578.42 420.022 580 424 580ZM423.613 571.067L431.947 561.067L429.387 558.933L422.22 567.532L418.512 563.822L416.155 566.178L421.155 571.178L422.445 572.468L423.613 571.067Z" fill="white"/>
<path fill-rule="evenodd" clip-rule="evenodd" d="M424 676C425.97 676 427.92 675.612 429.74 674.858C431.56 674.104 433.214 672.999 434.607 671.607C435.999 670.214 437.104 668.56 437.858 666.74C438.612 664.92 439 662.97 439 661C439 659.03 438.612 657.08 437.858 655.26C437.104 653.44 435.999 651.786 434.607 650.393C433.214 649.001 431.56 647.896 429.74 647.142C427.92 646.388 425.97 646 424 646C420.022 646 416.206 647.58 413.393 650.393C410.58 653.206 409 657.022 409 661C409 664.978 410.58 668.794 413.393 671.607C416.206 674.42 420.022 676 424 676ZM423.613 667.067L431.947 657.067L429.387 654.933L422.22 663.532L418.512 659.822L416.155 662.178L421.155 667.178L422.445 668.468L423.613 667.067Z" fill="white"/>
<path fill-rule="evenodd" clip-rule="evenodd" d="M424 772C425.97 772 427.92 771.612 429.74 770.858C431.56 770.104 433.214 768.999 434.607 767.607C435.999 766.214 437.104 764.56 437.858 762.74C438.612 760.92 439 758.97 439 757C439 755.03 438.612 753.08 437.858 751.26C437.104 749.44 435.999 747.786 434.607 746.393C433.214 745.001 431.56 743.896 429.74 743.142C427.92 742.388 425.97 742 424 742C420.022 742 416.206 743.58 413.393 746.393C410.58 749.206 409 753.022 409 757C409 760.978 410.58 764.794 413.393 767.607C416.206 770.42 420.022 772 424 772ZM423.613 763.067L431.947 753.067L429.387 750.933L422.22 759.532L418.512 755.822L416.155 758.178L421.155 763.178L422.445 764.468L423.613 763.067Z" fill="white"/>
<path fill-rule="evenodd" clip-rule="evenodd" d="M424 868C425.97 868 427.92 867.612 429.74 866.858C431.56 866.104 433.214 864.999 434.607 863.607C435.999 862.214 437.104 860.56 437.858 858.74C438.612 856.92 439 854.97 439 853C439 851.03 438.612 849.08 437.858 847.26C437.104 845.44 435.999 843.786 434.607 842.393C433.214 841.001 431.56 839.896 429.74 839.142C427.92 838.388 425.97 838 424 838C420.022 838 416.206 839.58 413.393 842.393C410.58 845.206 409 849.022 409 853C409 856.978 410.58 860.794 413.393 863.607C416.206 866.42 420.022 868 424 868ZM423.613 859.067L431.947 849.067L429.387 846.933L422.22 855.532L418.512 851.822L416.155 854.178L421.155 859.178L422.445 860.468L423.613 859.067Z" fill="white"/>
<defs>
<clipPath id="clip0_4398_1124">
<rect width="42" height="42" fill="white" transform="translate(303 41)"/>
</clipPath>
</defs>
</svg>
