<svg width="81" height="152" viewBox="0 0 81 152" fill="none" xmlns="http://www.w3.org/2000/svg">
<g id="Frame" clip-path="url(#clip0_4398_750)">
<g id="Group">
<g id="OBJECTS">
<g id="Group_2">
<g id="Group_3">
<g id="Group_4">
<g id="Group_5">
<path id="Vector" d="M61.9483 136.889C64.7517 146.591 75.2375 152.001 75.2375 152.001C75.2375 152.001 81.1748 141.685 78.3714 131.983C75.5679 122.281 65.0822 116.871 65.0822 116.871C65.0822 116.871 59.1449 127.187 61.9483 136.889Z" fill="url(#paint0_radial_4398_750)"/>
<path id="Vector_2" style="mix-blend-mode:screen" d="M64.1268 136.239C66.1868 143.365 73.8898 147.342 73.8898 147.342C73.8898 147.342 78.2524 139.765 76.1924 132.634C74.1324 125.509 66.4295 121.531 66.4295 121.531C66.4295 121.531 62.0669 129.108 64.1268 136.239Z" fill="url(#paint1_radial_4398_750)"/>
</g>
<g id="Group_6">
<path id="Vector_3" d="M57.4726 106.891C58.2057 103.632 59.6565 100.111 63.3272 99.5028C64.9948 99.2247 66.6934 99.6812 68.1235 100.599C71.1335 102.53 72.6204 105.862 73.8182 109.137C75.6871 114.268 77.0553 119.573 78.3666 124.883C78.6506 126.022 78.3357 127.239 77.5148 128.068C73.2089 132.408 66.5334 134.375 60.5393 133.268C59.4603 133.069 58.6084 132.229 58.3554 131.143C56.502 123.183 55.6811 114.851 57.4674 106.891H57.4726Z" fill="url(#paint2_linear_4398_750)"/>
<path id="Vector_4" d="M63.1673 129.51C61.5461 129.51 59.7856 129.337 57.8805 128.954C57.7876 128.513 57.705 128.072 57.6172 127.631C70.1268 130.402 75.8885 123.644 77.4632 121.309C77.5923 121.812 77.7213 122.311 77.8452 122.815C75.8782 125.26 71.2884 129.515 63.1673 129.515V129.51Z" fill="url(#paint3_linear_4398_750)"/>
<path id="Vector_5" style="mix-blend-mode:multiply" d="M57.4723 106.889C58.2054 103.631 59.6562 100.11 63.327 99.5013C64.85 99.2495 66.3989 99.6115 67.7464 100.372C67.6225 101.469 67.4211 102.508 67.3127 103.253C66.7809 106.879 65.6812 110.421 64.0704 113.705C63.136 115.605 62.0363 117.415 60.7714 119.105C59.651 120.605 58.3861 122.022 56.925 123.166C56.2539 117.725 56.2797 112.226 57.4775 106.895L57.4723 106.889Z" fill="url(#paint4_linear_4398_750)"/>
<path id="Vector_6" style="mix-blend-mode:multiply" opacity="0.75" d="M56.5222 118.418C56.5119 118.14 56.4964 117.862 56.4912 117.584C64.4627 118.449 70.7458 114.063 70.8078 114.016L71.2776 114.693C71.0298 114.871 65.7998 118.528 58.6544 118.528C57.9626 118.528 57.2502 118.491 56.5274 118.418H56.5222Z" fill="url(#paint5_radial_4398_750)"/>
<path id="Vector_7" d="M69.3625 114.799C69.8117 116.567 70.9269 117.801 71.851 117.559C72.7803 117.318 73.1675 115.686 72.7235 113.923C72.2795 112.16 71.1592 110.922 70.235 111.163C69.3057 111.404 68.9185 113.036 69.3625 114.799Z" fill="url(#paint6_linear_4398_750)"/>
</g>
</g>
<g id="Group_7">
<g id="Group_8">
<path id="Vector_8" d="M28.3079 136.889C25.5044 146.591 15.0187 152.001 15.0187 152.001C15.0187 152.001 9.08141 141.685 11.8848 131.983C14.6883 122.281 25.174 116.871 25.174 116.871C25.174 116.871 31.1113 127.187 28.3079 136.889Z" fill="url(#paint7_radial_4398_750)"/>
<path id="Vector_9" style="mix-blend-mode:screen" d="M26.1289 136.239C24.069 143.365 16.366 147.342 16.366 147.342C16.366 147.342 12.0034 139.765 14.0634 132.634C16.1233 125.509 23.8263 121.531 23.8263 121.531C23.8263 121.531 28.1889 129.108 26.1289 136.239Z" fill="url(#paint8_radial_4398_750)"/>
</g>
<g id="Group_9">
<path id="Vector_10" d="M32.9289 106.891C32.1958 103.632 30.745 100.111 27.0743 99.5028C25.4067 99.2247 23.7081 99.6812 22.278 100.599C19.268 102.53 17.7811 105.862 16.5833 109.137C14.7144 114.268 13.3462 119.573 12.0349 124.883C11.7509 126.022 12.0658 127.239 12.8867 128.068C17.1926 132.408 23.8681 134.375 29.8622 133.268C30.9412 133.069 31.7931 132.229 32.0461 131.143C33.8995 123.183 34.7204 114.851 32.9341 106.891H32.9289Z" fill="url(#paint9_linear_4398_750)"/>
<path id="Vector_11" d="M27.2288 129.51C28.8499 129.51 30.6104 129.337 32.5155 128.954C32.6085 128.513 32.6962 128.072 32.7788 127.631C20.2692 130.402 14.5075 123.644 12.9328 121.309C12.8038 121.812 12.6747 122.311 12.5508 122.815C14.5178 125.26 19.1076 129.515 27.2288 129.515V129.51Z" fill="url(#paint10_linear_4398_750)"/>
<path id="Vector_12" style="mix-blend-mode:multiply" d="M32.9293 106.889C32.1962 103.631 30.7455 100.11 27.0747 99.5013C25.5516 99.2495 24.0028 99.6115 22.6553 100.372C22.7792 101.469 22.9805 102.508 23.089 103.253C23.6207 106.879 24.7204 110.421 26.3312 113.705C27.2657 115.605 28.3654 117.415 29.6303 119.105C30.7506 120.605 32.0155 122.022 33.4766 123.166C34.1478 117.725 34.122 112.226 32.9242 106.895L32.9293 106.889Z" fill="url(#paint11_linear_4398_750)"/>
<path id="Vector_13" style="mix-blend-mode:multiply" opacity="0.75" d="M33.8736 118.418C33.8839 118.14 33.8994 117.862 33.9046 117.584C25.9331 118.449 19.6499 114.063 19.588 114.016L19.1182 114.693C19.366 114.871 24.596 118.528 31.7413 118.528C32.4332 118.528 33.1456 118.491 33.8684 118.418H33.8736Z" fill="url(#paint12_radial_4398_750)"/>
<path id="Vector_14" d="M21.0341 114.799C20.5849 116.567 19.4697 117.801 18.5456 117.559C17.6163 117.318 17.2291 115.686 17.6731 113.923C18.1171 112.16 19.2374 110.922 20.1616 111.163C21.0909 111.404 21.4781 113.036 21.0341 114.799Z" fill="url(#paint13_linear_4398_750)"/>
</g>
</g>
<g id="Group_10">
<path id="Vector_15" d="M65.0309 89.6484H25.3647C23.4699 89.6484 22.0811 91.5479 22.5406 93.5104C23.6196 98.1384 25.9842 106.135 30.5637 113.103C36.8985 122.737 45.2004 122.05 45.2004 122.05C45.2004 122.05 53.5022 122.737 59.837 113.103C64.4165 106.135 66.7862 98.1331 67.8601 93.5104C68.3196 91.5479 66.9308 89.6484 65.036 89.6484H65.0309Z" fill="url(#paint14_linear_4398_750)"/>
<path id="Vector_16" d="M45.2005 118.302C45.0456 118.302 29.5312 113.916 27.7139 94.5904L27.6055 93.457H62.7903L62.6819 94.5904C60.8646 113.921 45.3502 118.302 45.1953 118.302H45.2005ZM29.8668 95.5244C31.8287 110.92 43.187 115.485 45.2005 116.177C47.2088 115.485 58.5723 110.92 60.5341 95.5244H29.872H29.8668Z" fill="url(#paint15_linear_4398_750)"/>
<path id="Vector_17" style="mix-blend-mode:multiply" d="M61.1591 89.75H29.232C27.709 89.75 26.5887 90.9673 26.9604 92.2267C27.8278 95.1913 29.7328 100.323 33.4191 104.788C38.5149 110.964 45.2008 110.524 45.2008 110.524C45.2008 110.524 51.8815 110.964 56.9824 104.788C60.6687 100.318 62.5737 95.1913 63.4411 92.2267C63.8077 90.9673 62.6925 89.75 61.1695 89.75H61.1591Z" fill="url(#paint16_linear_4398_750)"/>
</g>
</g>
<g id="Group_11">
<g id="Group_12">
<path id="Vector_18" d="M5.30208 19.6979C5.41566 19.2571 5.57055 18.8111 5.88032 18.491C6.19009 18.1657 6.69605 17.9978 7.09875 18.1919C7.45499 18.3651 7.64602 18.7796 7.68732 19.1836C7.72862 19.5824 7.64085 19.9865 7.59439 20.3852C7.46015 21.4557 7.57374 22.5576 7.91965 23.5808C8.11584 24.158 8.3843 24.8139 8.09518 25.3491C7.91448 25.6849 7.5376 25.8843 7.16071 25.9263C6.44307 26.0102 6.05586 25.8213 5.77706 25.1864C5.51892 24.6092 5.33306 24.0005 5.20915 23.3761C4.97682 22.164 5.00264 20.8995 5.30208 19.7031V19.6979Z" fill="url(#paint17_linear_4398_750)"/>
<path id="Vector_19" style="mix-blend-mode:multiply" d="M7.56305 25.6318C7.31007 25.0388 6.83509 24.5823 6.4582 24.0576C5.7767 23.1184 5.42563 21.9378 5.47726 20.7677C5.51856 19.8599 5.80252 18.9679 6.28782 18.207C6.1381 18.2752 5.9987 18.3697 5.88512 18.4851C5.57535 18.8105 5.4153 19.2565 5.30688 19.692C5.00227 20.8883 4.97646 22.1529 5.21395 23.365C5.3327 23.9894 5.52372 24.5981 5.7767 25.1753C6.06066 25.8102 6.44271 25.9991 7.16035 25.9151C7.32039 25.8994 7.47012 25.8469 7.61468 25.7734C7.59919 25.721 7.5837 25.6685 7.56305 25.6213V25.6318Z" fill="url(#paint18_linear_4398_750)"/>
<path id="Vector_20" d="M4.15065 27.8107C2.95803 27.5746 1.85834 26.8924 1.10456 25.9217C0.35595 24.951 -0.0467524 23.7074 -0.000286736 22.4743C0.0203647 21.9548 0.216553 21.3252 0.722513 21.236C1.02196 21.1835 1.32657 21.3567 1.51759 21.598C1.70862 21.8394 1.81187 22.1385 1.92029 22.4271C2.2249 23.2561 2.59663 24.0957 3.24199 24.6834C3.61887 25.0244 4.0732 25.2711 4.45009 25.6069C4.83214 25.9479 5.13675 26.4254 5.09029 26.9397C5.00252 27.9576 4.14548 27.8107 4.14548 27.8107H4.15065Z" fill="url(#paint19_linear_4398_750)"/>
<path id="Vector_21" style="mix-blend-mode:multiply" d="M4.53762 26.8803C2.73579 26.4133 1.38828 24.7762 0.830693 22.9764C0.686133 22.5042 0.582876 21.9952 0.696459 21.5125C0.722273 21.4075 0.758413 21.3131 0.799716 21.2344C0.773901 21.2344 0.75325 21.2344 0.727436 21.2344C0.221476 21.3236 0.0252877 21.9532 0.00463625 22.4727C-0.0418294 23.7058 0.35571 24.9494 1.10949 25.9201C1.86326 26.8856 2.96295 27.573 4.15557 27.8091C4.15557 27.8091 4.95581 27.9455 5.09005 27.0272C4.90935 26.9695 4.72348 26.9276 4.54278 26.8803H4.53762Z" fill="url(#paint20_linear_4398_750)"/>
<path id="Vector_22" d="M4.92981 24.9811C6.03466 23.7166 8.00171 23.2128 9.45763 24.0314C10.3508 24.5351 10.96 25.4376 11.3731 26.3874C11.6725 27.0695 11.8687 27.9091 11.4505 28.523C11.213 28.8745 10.8206 29.0739 10.4437 29.2576C9.406 29.7718 8.34762 30.2913 7.20663 30.4959C6.50448 30.6218 5.76619 30.6114 5.07437 30.412C4.29478 30.1863 3.90757 29.945 3.80431 29.1317C3.61845 27.6729 3.94887 26.0988 4.92981 24.9759V24.9811Z" fill="url(#paint21_linear_4398_750)"/>
<g id="Group_13">
<path id="Vector_23" d="M11.2341 21.2569C11.167 20.8896 11.0431 20.5381 10.9966 20.1655C10.9501 19.7982 11.0018 19.3889 11.2496 19.1161C11.611 18.7121 12.2873 18.754 12.7158 19.0794C13.1443 19.4099 13.3663 19.9451 13.4851 20.4751C13.9343 22.4376 13.165 24.6361 11.6006 25.8692C11.2754 26.1263 10.9088 26.3467 10.5061 26.4149C10.1034 26.4831 9.64909 26.3677 9.38578 26.0529C8.59587 25.1084 9.91756 24.5522 10.4029 24.0222C11.0689 23.2928 11.4148 22.2434 11.2392 21.2569H11.2341Z" fill="url(#paint22_linear_4398_750)"/>
<path id="Vector_24" style="mix-blend-mode:multiply" d="M13.4898 20.4789C13.3711 19.9489 13.1491 19.4085 12.7206 19.0832C12.4831 18.8995 12.163 18.8103 11.8687 18.8365C11.9616 19.0727 12.1165 19.2825 12.2507 19.4977C12.9116 20.5576 13.0665 21.9271 12.6586 23.1077C12.2507 24.2883 11.2853 25.2591 10.1185 25.6631C9.84486 25.7575 9.55057 25.8205 9.26662 25.7628C9.2408 25.7628 9.22015 25.7471 9.19434 25.7366C9.23564 25.8363 9.29759 25.9412 9.39052 26.0566C9.65383 26.3767 10.1082 26.4869 10.5109 26.4187C10.9187 26.3505 11.2801 26.1301 11.6054 25.873C13.1697 24.6399 13.939 22.4413 13.4898 20.4789Z" fill="url(#paint23_linear_4398_750)"/>
</g>
</g>
<path id="Vector_25" d="M5.07466 47.5983C4.58935 46.9109 4.49126 46.0241 4.41381 45.1794C4.04209 41.1967 3.6652 37.2089 3.29347 33.2263C3.1644 31.8253 3.06114 30.3036 3.82008 29.1283C4.82168 27.5803 6.88166 27.2498 8.69382 27.0714C9.78834 26.9612 10.9913 26.8772 11.8845 27.5384C12.7725 28.189 13.0668 29.3749 13.3094 30.461C14.0529 33.835 14.7911 37.2089 15.5346 40.5828C15.7566 41.6008 15.9838 42.6765 15.6895 43.6734C15.2197 45.2738 13.4953 46.4964 11.9206 46.9739C10.5989 47.3779 5.89039 48.7422 5.08498 47.6035L5.07466 47.5983Z" fill="url(#paint24_linear_4398_750)"/>
<path id="Vector_26" style="mix-blend-mode:multiply" opacity="0.75" d="M15.7773 43.2518C15.6224 43.1154 15.4468 42.9947 15.2661 42.9003C14.6414 42.5802 13.9135 42.5067 13.2113 42.512C10.2788 42.5382 7.39278 43.9654 5.61676 46.2637C5.34312 46.6153 5.09531 47.0036 4.97656 47.4233C5.0127 47.481 5.04368 47.544 5.08498 47.5965C5.89039 48.7351 10.5989 47.3656 11.9206 46.9668C13.4953 46.4893 15.2248 45.272 15.6895 43.6664C15.7308 43.5299 15.7566 43.3935 15.7824 43.2518H15.7773Z" fill="url(#paint25_linear_4398_750)"/>
<path id="Vector_27" d="M7.26865 47.4924C7.5681 46.6633 8.35285 46.1334 9.12728 45.7346C10.1185 45.2256 11.1718 44.8426 12.256 44.6012C13.0356 44.428 13.9804 44.3808 14.4915 45.0052C14.8839 45.488 14.8477 46.2278 14.5431 46.7735C14.2437 47.3192 13.7274 47.7128 13.2059 48.0486C11.8636 48.9196 10.3819 49.5335 8.88979 50.0897C8.03275 50.4098 7.74363 50.6827 7.41321 49.7067C7.17056 48.9983 7.00018 48.2217 7.26349 47.4924H7.26865Z" fill="url(#paint26_linear_4398_750)"/>
<path id="Vector_28" d="M14.3264 63.6488C11.6985 61.4817 9.75726 58.5852 7.9864 55.6573C7.29974 54.5187 6.60792 53.2856 6.64922 51.9528C6.69053 50.6515 7.43914 49.4552 8.40976 48.6051C9.38037 47.7551 10.5523 47.1884 11.714 46.6374C13.2319 45.9133 14.9976 45.184 16.5206 45.8976C17.6668 46.4328 18.3276 47.6449 18.88 48.794C20.9813 53.1754 22.5715 57.8139 23.604 62.5783C23.8105 63.5386 24.2804 65.3383 23.6866 66.2566C23.1549 67.0751 21.797 66.797 20.9658 66.6869C18.5289 66.372 16.2263 65.2176 14.3264 63.654V63.6488Z" fill="url(#paint27_linear_4398_750)"/>
</g>
<g id="Group_14">
<g id="Group_15">
<path id="Vector_29" d="M79.8534 96.5798C80.4678 97.1412 80.8137 97.9441 80.9428 98.7574C81.0667 99.5707 80.9892 100.4 80.855 101.213C80.8034 101.517 80.7363 101.843 80.4988 102.042C80.1684 102.32 79.6211 102.221 79.3165 101.911C79.0119 101.601 78.9086 101.155 78.8931 100.73C78.8776 100.305 78.9396 99.875 78.9035 99.45C78.8673 99.025 78.7228 98.579 78.382 98.3114C77.9483 97.9755 77.2668 97.9651 76.9571 97.519C76.7815 97.2672 76.7815 96.9209 76.8951 96.6375C77.3907 95.3992 79.0841 95.8819 79.8586 96.5903L79.8534 96.5798Z" fill="url(#paint28_linear_4398_750)"/>
<path id="Vector_30" style="mix-blend-mode:multiply" d="M79.9046 102.193C79.8685 101.275 79.8272 100.357 79.7911 99.4384C79.7652 98.8349 79.7188 98.1738 79.3006 97.7435C79.0166 97.4497 78.6088 97.3185 78.2215 97.1873C77.8343 97.0561 77.4316 96.904 77.1786 96.5734C77.1167 96.4947 77.0754 96.4107 77.0496 96.332C76.9876 96.416 76.9308 96.5104 76.8844 96.6259C76.7708 96.9092 76.7708 97.2555 76.9463 97.5074C77.2561 97.9534 77.9376 97.9639 78.3713 98.2997C78.712 98.5673 78.8617 99.0081 78.8927 99.4384C78.9289 99.8634 78.8669 100.294 78.8824 100.719C78.8979 101.144 79.0011 101.595 79.3057 101.899C79.4606 102.057 79.6775 102.156 79.8995 102.183L79.9046 102.193Z" fill="url(#paint29_linear_4398_750)"/>
</g>
<path id="Vector_31" d="M72.2538 99.0518C73.7304 99.8021 75.62 99.608 76.9211 98.5848C78.2221 97.5563 78.8674 95.7408 78.5215 94.1037C78.4234 93.6472 78.2427 93.1855 77.8762 92.9021C77.427 92.5505 76.8126 92.54 76.2499 92.5768C74.8146 92.6712 73.3948 92.9651 72.0422 93.4531C70.8186 93.8938 69.6001 94.5707 69.9409 96.0347C70.2403 97.315 71.0974 98.4589 72.259 99.0518H72.2538Z" fill="url(#paint30_linear_4398_750)"/>
<path id="Vector_32" d="M66.9983 78.8089C66.6421 79.533 66.766 80.4093 66.8951 81.2174C67.525 85.1265 68.1497 89.0357 68.7795 92.9501C68.9396 93.9365 69.1306 95.0017 69.8069 95.6943C70.4936 96.3974 71.5107 96.5549 72.4606 96.6021C73.5965 96.6546 74.7581 96.6021 75.832 96.2033C76.911 95.8098 77.9023 95.0437 78.4237 93.9575C79.0226 92.7139 78.9349 91.229 78.8316 89.8332C78.527 85.6617 78.2275 81.4955 77.9229 77.324C77.8765 76.6524 77.7835 75.8968 77.2828 75.4927C76.8697 75.1622 76.3018 75.1831 75.7907 75.2409C74.0043 75.4455 72.2541 75.965 70.6175 76.7625C69.492 77.3135 67.6179 77.5391 66.9983 78.8089Z" fill="url(#paint31_linear_4398_750)"/>
<path id="Vector_33" style="mix-blend-mode:multiply" opacity="0.75" d="M77.2822 75.4927C76.8692 75.1622 76.3013 75.1831 75.7901 75.2409C74.0038 75.4455 72.2536 75.965 70.617 76.7625C69.4915 77.3135 67.6173 77.5391 66.9978 78.8089C66.9358 78.9349 66.8945 79.0608 66.8584 79.192C66.9152 79.2497 66.972 79.3022 67.0443 79.3442C67.5089 79.638 68.113 79.554 68.6551 79.4543C71.2365 78.9978 73.885 78.5151 76.1412 77.1981C76.5594 76.9514 76.9724 76.6681 77.2409 76.2693C77.3596 76.0962 77.4371 75.8915 77.4784 75.6869C77.4216 75.6134 77.3596 75.5452 77.2822 75.4875V75.4927Z" fill="url(#paint32_linear_4398_750)"/>
<path id="Vector_34" d="M67.1422 77.3491C67.3177 77.8738 67.8443 78.2044 68.3813 78.2988C68.9182 78.3933 69.4655 78.2988 69.9973 78.1939C71.9901 77.8213 74.0707 77.4068 75.6609 76.1265C76.2701 75.6332 76.8277 74.8672 76.6005 74.1063C76.4457 73.5816 75.9397 73.2248 75.4079 73.1041C74.8813 72.9834 74.3289 73.0621 73.7971 73.1618C72.3464 73.4242 70.8904 73.8282 69.5997 74.5628C68.8356 74.9983 66.7653 76.2419 67.137 77.3438L67.1422 77.3491Z" fill="url(#paint33_linear_4398_750)"/>
<path id="Vector_35" d="M65.0051 55.5937C65.9034 54.9955 67.096 54.9798 68.1131 55.3471C69.125 55.7196 69.9821 56.4332 70.7359 57.215C74.5306 61.1714 75.9039 67.1794 77.0397 72.5893C76.0794 74.94 71.5103 76.3462 69.915 76.6716C68.934 76.8709 67.2096 77.0756 66.3526 76.5509C64.0242 69.908 63.6834 62.5147 65.0051 55.5884V55.5937Z" fill="url(#paint34_linear_4398_750)"/>
<g id="Group_16">
<path id="Vector_36" d="M77.086 103.982C77.5403 103.625 77.7365 103.016 77.8501 102.439C78.1443 100.959 77.7417 99.3537 76.7917 98.194C76.5284 97.8792 76.2083 97.5801 75.8159 97.4909C75.4235 97.4017 74.9382 97.5854 74.8091 97.9737C74.6646 98.4144 74.9898 98.8552 75.2325 99.254C75.8366 100.256 75.9398 101.547 75.5113 102.638C75.3925 102.937 75.2377 103.226 75.2118 103.541C75.186 103.861 75.3461 104.223 75.6507 104.302C75.6507 104.302 76.4096 104.522 77.0963 103.982H77.086Z" fill="url(#paint35_linear_4398_750)"/>
<path id="Vector_37" style="mix-blend-mode:multiply" d="M75.8104 97.4904C75.671 97.459 75.5212 97.4642 75.3818 97.4904C75.4335 97.5482 75.4954 97.6006 75.5471 97.6531C76.7655 98.7498 77.4367 100.445 77.3076 102.097C77.2508 102.832 77.0133 103.598 76.4402 104.049C76.2595 104.191 76.0375 104.286 75.8104 104.333C76.0685 104.364 76.5951 104.369 77.0856 103.981C77.5399 103.624 77.7361 103.016 77.8497 102.439C78.144 100.959 77.7413 99.3532 76.7913 98.1936C76.528 97.8787 76.2079 97.5796 75.8155 97.4904H75.8104Z" fill="url(#paint36_linear_4398_750)"/>
</g>
<g id="Group_17">
<path id="Vector_38" d="M68.9904 102.231C69.0523 102.629 69.1711 103.028 69.4034 103.354C69.6357 103.679 70.0075 103.925 70.405 103.936C70.8025 103.946 71.2104 103.674 71.2982 103.28C71.386 102.897 71.1743 102.519 71.0142 102.157C70.7664 101.596 70.6425 100.94 70.8645 100.373C71.0039 100.027 71.2569 99.7487 71.5099 99.4811C71.7628 99.2135 72.0261 98.9459 72.1914 98.6101C72.3566 98.2795 72.403 97.8597 72.2172 97.5397C71.6802 96.6004 70.596 97.6603 70.183 98.1431C69.5738 98.8514 69.1608 99.733 69.0007 100.656C68.9129 101.176 68.9026 101.711 68.9852 102.231H68.9904Z" fill="url(#paint37_linear_4398_750)"/>
<path id="Vector_39" style="mix-blend-mode:multiply" d="M70.4769 99.3328C70.0122 100.214 69.847 101.28 70.131 102.235C70.2291 102.565 70.3788 102.88 70.4408 103.216C70.4821 103.452 70.4666 103.714 70.3736 103.929C70.384 103.929 70.3943 103.929 70.4046 103.929C70.8022 103.94 71.21 103.667 71.2978 103.273C71.3856 102.89 71.1739 102.513 71.0138 102.151C70.766 101.589 70.6421 100.933 70.8641 100.367C71.0035 100.02 71.2565 99.7421 71.5095 99.4745C71.7625 99.2069 72.0258 98.9393 72.191 98.6035C72.3562 98.2729 72.4027 97.8531 72.2168 97.5331C72.2013 97.5068 72.1858 97.4858 72.1703 97.4648C71.4785 97.9528 70.8744 98.5772 70.4769 99.3276V99.3328Z" fill="url(#paint38_linear_4398_750)"/>
</g>
</g>
<g id="Group_18">
<path id="Vector_40" d="M23.5989 68.8988C22.7315 67.7759 22.1997 66.4169 21.8435 65.0369C21.2136 62.6127 21.0639 60.0574 21.415 57.5754C21.5647 56.4945 21.8228 55.3979 22.4424 54.5006C23.0619 53.6086 24.1048 52.9527 25.1735 53.0629C26.0099 53.1521 26.7482 53.6925 27.2593 54.3694C27.7704 55.0463 28.0751 55.8596 28.3487 56.6677C29.4019 59.795 30.006 63.1164 29.7788 66.4117C29.7117 67.3876 29.5671 68.3794 29.1231 69.2451C27.7291 71.9684 25.1271 70.8613 23.604 68.8988H23.5989Z" fill="url(#paint39_linear_4398_750)"/>
<path id="Vector_41" d="M66.7969 68.8988C67.6642 67.7759 68.196 66.4169 68.5522 65.0369C69.1821 62.6127 69.3318 60.0574 68.9807 57.5754C68.831 56.4945 68.5729 55.3979 67.9533 54.5006C67.3338 53.6086 66.2909 52.9527 65.2222 53.0629C64.3858 53.1521 63.6475 53.6925 63.1364 54.3694C62.6253 55.0463 62.3207 55.8596 62.047 56.6677C60.9938 59.795 60.3898 63.1164 60.6169 66.4117C60.684 67.3876 60.8286 68.3794 61.2726 69.2451C62.6666 71.9684 65.2686 70.8613 66.7917 68.8988H66.7969Z" fill="url(#paint40_linear_4398_750)"/>
<path id="Vector_42" d="M45.1999 41.9023L36.3662 42.3379L37.6466 50.2558C37.7137 50.6809 38.0751 50.9904 38.4985 50.9904H51.9064C52.3298 50.9904 52.686 50.6809 52.7583 50.2558L54.0387 42.3379L45.2102 41.9023H45.1999Z" fill="url(#paint41_linear_4398_750)"/>
<path id="Vector_43" d="M60.6836 50.0938H29.7168C26.9392 50.0938 24.7295 52.4602 24.8793 55.278L26.7843 91.6199C26.8463 92.769 27.1664 93.8919 27.7291 94.8941C33.3567 104.921 45.2002 107.146 45.2002 107.146C45.2002 107.146 57.0438 104.921 62.6713 94.8941C63.2341 93.8919 63.5542 92.769 63.6161 91.6199L65.5212 55.278C65.671 52.4602 63.4613 50.0938 60.6836 50.0938Z" fill="url(#paint42_linear_4398_750)"/>
<path id="Vector_44" style="mix-blend-mode:screen" opacity="0.45" d="M45.2003 104.606C43.1145 104.092 34.2395 101.495 29.846 93.666C29.4742 93.0049 29.2574 92.2545 29.2213 91.4937L27.3162 55.1518C27.28 54.4749 27.5124 53.8348 27.9718 53.3468C28.4313 52.8588 29.0457 52.5859 29.7117 52.5859H60.6785C61.3445 52.5859 61.9641 52.8588 62.4184 53.3468C62.8779 53.8348 63.1102 54.4802 63.0741 55.1571L61.169 91.499C61.1277 92.265 60.9108 93.0154 60.5443 93.6765C56.1249 101.547 47.2912 104.108 45.2003 104.617V104.606Z" fill="url(#paint43_linear_4398_750)"/>
<path id="Vector_45" style="mix-blend-mode:multiply" d="M63.3273 88.8643C57.4881 98.8916 45.1954 101.116 45.1954 101.116C45.1954 101.116 32.9078 98.8916 27.0634 88.8643C26.8724 88.5389 26.7124 88.1979 26.5781 87.8516L26.7743 91.619C26.8363 92.7682 27.1564 93.8911 27.7191 94.8933C33.3466 104.921 45.1902 107.145 45.1902 107.145C45.1902 107.145 57.0338 104.921 62.6613 94.8933C63.2241 93.8911 63.5441 92.7682 63.6061 91.619L63.8023 87.8516C63.6681 88.1979 63.508 88.5389 63.317 88.8643H63.3273Z" fill="url(#paint44_linear_4398_750)"/>
<path id="Vector_46" style="mix-blend-mode:multiply" opacity="0.75" d="M44.792 107.062C45.0501 107.125 45.1999 107.151 45.1999 107.151C45.1999 107.151 45.3496 107.125 45.6077 107.062V55.0312H44.792V107.062Z" fill="url(#paint45_radial_4398_750)"/>
<g id="Group_19">
<path id="Vector_47" style="mix-blend-mode:multiply" d="M45.2001 80.7484C49.634 80.7484 53.2283 77.0953 53.2283 72.589C53.2283 68.0827 49.634 64.4297 45.2001 64.4297C40.7662 64.4297 37.1719 68.0827 37.1719 72.589C37.1719 77.0953 40.7662 80.7484 45.2001 80.7484Z" fill="url(#paint46_linear_4398_750)"/>
<path id="Vector_48" d="M45.2001 79.8148C49.634 79.8148 53.2283 76.1617 53.2283 71.6554C53.2283 67.1492 49.634 63.4961 45.2001 63.4961C40.7662 63.4961 37.1719 67.1492 37.1719 71.6554C37.1719 76.1617 40.7662 79.8148 45.2001 79.8148Z" fill="url(#paint47_linear_4398_750)"/>
<path id="Vector_49" style="mix-blend-mode:screen" d="M47.3535 77.5968C50.2519 76.3863 51.636 73.0169 50.4449 70.0711C49.2538 67.1253 45.9386 65.7186 43.0401 66.9292C40.1417 68.1397 38.7576 71.5091 39.9487 74.4549C41.1398 77.4007 44.455 78.8074 47.3535 77.5968Z" fill="url(#paint48_linear_4398_750)"/>
<path id="Vector_50" style="mix-blend-mode:screen" d="M45.2004 64.2045C49.5165 64.2045 53.0273 67.6676 53.208 72.007C53.208 71.8863 53.2235 71.7709 53.2235 71.6554C53.2235 67.1481 49.6301 63.4961 45.1952 63.4961C40.7603 63.4961 37.167 67.1481 37.167 71.6554C37.167 71.7761 37.1773 71.8916 37.1825 72.007C37.3683 67.6676 40.8791 64.2045 45.1952 64.2045H45.2004Z" fill="url(#paint49_linear_4398_750)"/>
<path id="Vector_51" d="M45.2003 77.4239C48.334 77.4239 50.8743 74.8421 50.8743 71.6573C50.8743 68.4724 48.334 65.8906 45.2003 65.8906C42.0667 65.8906 39.5264 68.4724 39.5264 71.6573C39.5264 74.8421 42.0667 77.4239 45.2003 77.4239Z" fill="url(#paint50_linear_4398_750)"/>
<path id="Vector_52" style="mix-blend-mode:multiply" d="M45.7479 75.0342C42.614 75.0342 40.0739 72.4526 40.0739 69.2675C40.0739 69.2413 40.0739 69.2098 40.0739 69.1836C39.7228 69.9339 39.5215 70.7735 39.5215 71.6603C39.5215 74.8453 42.0616 77.4269 45.1955 77.4269C48.3293 77.4269 50.823 74.8873 50.8694 71.7442C49.9556 73.6909 48.0092 75.0394 45.7479 75.0394V75.0342Z" fill="url(#paint51_linear_4398_750)"/>
<path id="Vector_53" style="mix-blend-mode:screen" d="M48.716 70.1188C48.2978 71.079 46.8677 71.3676 45.5202 70.7589C44.1727 70.1502 43.4189 68.8804 43.8371 67.9202C44.2553 66.96 45.6854 66.6714 47.0329 67.28C48.3804 67.8887 49.1342 69.1585 48.716 70.1188Z" fill="url(#paint52_linear_4398_750)"/>
</g>
<path id="Vector_54" d="M29.7119 50.0938C29.7119 53.9084 36.6456 56.999 45.2005 56.999C53.7553 56.999 60.689 53.9084 60.689 50.0938H29.7222H29.7119Z" fill="url(#paint53_linear_4398_750)"/>
<path id="Vector_55" d="M45.2002 50.0938H29.7168C29.7168 50.6604 29.8717 51.2114 30.1608 51.7361H60.2447C60.5339 51.2114 60.6888 50.6604 60.6888 50.0938H45.2054H45.2002Z" fill="url(#paint54_linear_4398_750)"/>
<path id="Vector_56" d="M30.7807 52.6107H59.6204C59.8682 52.3273 60.0799 52.0335 60.2451 51.7344H30.1611C30.3263 52.0335 30.5329 52.3273 30.7858 52.6107H30.7807Z" fill="url(#paint55_linear_4398_750)"/>
</g>
<g id="Group_20">
<path id="Vector_57" d="M46.2587 10.8131H44.1367L44.4826 2.81641H45.9076L46.2587 10.8131Z" fill="url(#paint56_linear_4398_750)"/>
<path id="Vector_58" d="M59.8062 9.82422H30.5845C24.4975 9.82422 19.9954 15.5804 21.3636 21.6041L25.5197 39.9167C26.1909 42.8866 28.7929 44.9907 31.7926 44.9907H58.6033C61.6029 44.9907 64.1998 42.8866 64.8761 39.9167L69.0322 21.6041C70.4004 15.5751 65.8984 9.82422 59.8114 9.82422H59.8062Z" fill="url(#paint57_linear_4398_750)"/>
<path id="Vector_59" d="M59.6564 15.1641H30.7392C28.323 15.1641 26.4954 17.3836 26.9239 19.8026L31.3794 44.968C31.5188 44.9785 31.6531 44.9837 31.7924 44.9837H58.6031C58.7425 44.9837 58.8768 44.9732 59.0162 44.968L63.4717 19.8026C63.9002 17.3836 62.0726 15.1641 59.6564 15.1641Z" fill="url(#paint58_linear_4398_750)"/>
<path id="Vector_60" style="mix-blend-mode:multiply" opacity="0.75" d="M29.7115 44.631L25.4831 22.9182L21.3477 21.4805C21.358 21.5172 21.3631 21.5592 21.3683 21.5959L21.5593 22.4302L24.7758 23.5479L28.8028 44.2269C29.0919 44.3844 29.3965 44.5155 29.7115 44.6257V44.631Z" fill="url(#paint59_radial_4398_750)"/>
<path id="Vector_61" style="mix-blend-mode:multiply" opacity="0.75" d="M60.6836 44.631L64.912 22.9182L69.0474 21.4805C69.0371 21.5172 69.0319 21.5592 69.0268 21.5959L68.8357 22.4302L65.6193 23.5479L61.5923 44.2269C61.3031 44.3844 60.9985 44.5155 60.6836 44.6257V44.631Z" fill="url(#paint60_radial_4398_750)"/>
<path id="Vector_62" d="M45.2001 11.8024C49.2065 11.8024 52.4539 10.9156 52.4539 9.82422H37.9463C37.9463 10.9156 41.1937 11.8024 45.2001 11.8024Z" fill="url(#paint61_linear_4398_750)"/>
<path id="Vector_63" d="M47.637 2.48191C47.637 3.85142 46.5425 4.96382 45.195 4.96382C43.8475 4.96382 42.7529 3.85142 42.7529 2.48191C42.7529 1.1124 43.8475 0 45.195 0C46.5425 0 47.637 1.1124 47.637 2.48191Z" fill="url(#paint62_linear_4398_750)"/>
<path id="Vector_64" d="M47.7512 26.2973C48.2365 25.4682 48.8715 24.87 49.6614 24.382C50.441 23.8993 51.3962 23.6055 52.3771 23.6055C53.3477 23.6055 54.3493 23.8678 55.1186 24.3925C55.5419 24.6077 55.8465 24.954 56.1873 25.2426C56.4867 25.5732 56.75 25.9247 56.9824 26.292C57.194 26.6173 57.1063 27.0581 56.7862 27.2732C56.5848 27.4097 56.3422 27.4254 56.1357 27.3362L56.0066 27.2837C55.6555 27.1316 55.3561 26.9374 55.0463 26.7853C54.7262 26.6646 54.4422 26.4757 54.1376 26.4022C53.5439 26.1713 52.976 26.1084 52.4081 26.1084C51.8402 26.1189 51.2568 26.2395 50.6475 26.4442C50.0538 26.6541 49.4033 26.9742 48.7992 27.268L48.6805 27.3257C48.3243 27.4989 47.8957 27.3467 47.7202 26.9846C47.6118 26.759 47.6324 26.4967 47.7512 26.2973Z" fill="url(#paint63_linear_4398_750)"/>
<path id="Vector_65" d="M40.5644 33.276C40.9361 33.3862 41.3749 33.6171 41.7776 33.743C42.1855 33.9005 42.5831 34.0211 42.9703 34.1366C43.7499 34.357 44.4778 34.4514 45.1851 34.4409C45.3607 34.4619 45.5414 34.4409 45.7169 34.4147C45.8924 34.3937 46.0731 34.4094 46.2538 34.3517C46.4345 34.315 46.6152 34.2783 46.8011 34.2573C46.9818 34.1995 47.1677 34.1418 47.3587 34.0894C47.4516 34.0631 47.5497 34.0421 47.6478 34.0159L47.9369 33.9005C48.1331 33.8218 48.3345 33.7535 48.541 33.6853C48.954 33.5227 49.3516 33.3023 49.8317 33.1606L50.0898 33.0819C50.7662 32.8773 51.4786 33.2656 51.68 33.9582C51.7936 34.3412 51.7213 34.7453 51.5148 35.0548C51.1895 35.5481 50.8178 36.0151 50.3996 36.4506C50.1724 36.65 49.9401 36.8494 49.6975 37.0435C49.5787 37.1432 49.4548 37.2377 49.3309 37.3269L48.9179 37.563C47.8492 38.2399 46.4965 38.5704 45.1748 38.5704C43.8428 38.5704 42.5417 38.1821 41.4627 37.5472C40.9258 37.2167 40.425 36.8546 39.9913 36.4243C39.7745 36.2092 39.5628 35.9888 39.3769 35.7422C39.1807 35.4956 39.0258 35.2647 38.8297 34.9394C38.4941 34.3675 38.6748 33.6276 39.2375 33.2865C39.5318 33.1081 39.8726 33.0714 40.1772 33.1659L40.5541 33.2813L40.5644 33.276Z" fill="url(#paint64_linear_4398_750)"/>
<path id="Vector_66" d="M43.2489 26.2973C42.7636 25.4682 42.1286 24.87 41.3387 24.382C40.5591 23.8993 39.6039 23.6055 38.623 23.6055C37.6524 23.6055 36.6508 23.8678 35.8815 24.3925C35.4582 24.6077 35.1536 24.954 34.8128 25.2426C34.5134 25.5732 34.2501 25.9247 34.0177 26.292C33.806 26.6173 33.8938 27.0581 34.2139 27.2732C34.4153 27.4097 34.6579 27.4254 34.8644 27.3362L34.9935 27.2837C35.3446 27.1316 35.644 26.9374 35.9538 26.7853C36.2739 26.6646 36.5578 26.4757 36.8625 26.4022C37.4562 26.1713 38.0241 26.1084 38.592 26.1084C39.1599 26.1189 39.7433 26.2395 40.3525 26.4442C40.9463 26.6541 41.5968 26.9742 42.2008 27.268L42.3196 27.3257C42.6758 27.4989 43.1043 27.3467 43.2799 26.9846C43.3883 26.759 43.3677 26.4967 43.2489 26.2973Z" fill="url(#paint65_linear_4398_750)"/>
</g>
</g>
</g>
</g>
</g>
<defs>
<radialGradient id="paint0_radial_4398_750" cx="0" cy="0" r="1" gradientUnits="userSpaceOnUse" gradientTransform="translate(65.1536 123.262) rotate(163.377) scale(23.7897 29.4087)">
<stop stop-color="#FC956F"/>
<stop offset="1" stop-color="#BE2D58"/>
</radialGradient>
<radialGradient id="paint1_radial_4398_750" cx="0" cy="0" r="1" gradientUnits="userSpaceOnUse" gradientTransform="translate(66.2961 120.499) rotate(163.377) scale(26.0109 32.1546)">
<stop stop-color="#FC956F"/>
<stop offset="1" stop-color="#BE2D58" stop-opacity="0"/>
</radialGradient>
<linearGradient id="paint2_linear_4398_750" x1="67.4679" y1="100.531" x2="67.4679" y2="130.708" gradientUnits="userSpaceOnUse">
<stop stop-color="#DFE7F4"/>
<stop offset="1" stop-color="#BBC5DF"/>
</linearGradient>
<linearGradient id="paint3_linear_4398_750" x1="67.7327" y1="130.574" x2="67.7327" y2="121.775" gradientUnits="userSpaceOnUse">
<stop stop-color="#6BFFCD"/>
<stop offset="1" stop-color="#3BD29F"/>
</linearGradient>
<linearGradient id="paint4_linear_4398_750" x1="64.0859" y1="87.7319" x2="59.2294" y2="133.781" gradientUnits="userSpaceOnUse">
<stop stop-color="#DFE7F4" stop-opacity="0"/>
<stop offset="1" stop-color="#BBC5DF"/>
</linearGradient>
<radialGradient id="paint5_radial_4398_750" cx="0" cy="0" r="1" gradientUnits="userSpaceOnUse" gradientTransform="translate(63.8844 116.272) rotate(180) scale(5.45713 5.54626)">
<stop stop-color="#DFE7F4"/>
<stop offset="1" stop-color="#BBC5DF"/>
</radialGradient>
<linearGradient id="paint6_linear_4398_750" x1="69.6929" y1="110.481" x2="72.424" y2="118.056" gradientUnits="userSpaceOnUse">
<stop stop-color="#010B78"/>
<stop offset="1" stop-color="#0A0B20"/>
</linearGradient>
<radialGradient id="paint7_radial_4398_750" cx="0" cy="0" r="1" gradientUnits="userSpaceOnUse" gradientTransform="translate(25.2044 123.296) rotate(16.6227) scale(23.7897 29.4087)">
<stop stop-color="#FC956F"/>
<stop offset="1" stop-color="#BE2D58"/>
</radialGradient>
<radialGradient id="paint8_radial_4398_750" cx="0" cy="0" r="1" gradientUnits="userSpaceOnUse" gradientTransform="translate(24.0616 120.532) rotate(16.6227) scale(26.0109 32.1546)">
<stop stop-color="#FC956F"/>
<stop offset="1" stop-color="#BE2D58" stop-opacity="0"/>
</radialGradient>
<linearGradient id="paint9_linear_4398_750" x1="22.9285" y1="100.531" x2="22.9285" y2="130.708" gradientUnits="userSpaceOnUse">
<stop stop-color="#DFE7F4"/>
<stop offset="1" stop-color="#BBC5DF"/>
</linearGradient>
<linearGradient id="paint10_linear_4398_750" x1="22.6663" y1="130.574" x2="22.6663" y2="121.775" gradientUnits="userSpaceOnUse">
<stop stop-color="#6BFFCD"/>
<stop offset="1" stop-color="#3BD29F"/>
</linearGradient>
<linearGradient id="paint11_linear_4398_750" x1="26.3106" y1="87.7319" x2="31.1671" y2="133.781" gradientUnits="userSpaceOnUse">
<stop stop-color="#DFE7F4" stop-opacity="0"/>
<stop offset="1" stop-color="#BBC5DF"/>
</linearGradient>
<radialGradient id="paint12_radial_4398_750" cx="0" cy="0" r="1" gradientUnits="userSpaceOnUse" gradientTransform="translate(26.5114 0.262162) scale(5.45713 5.54626)">
<stop stop-color="#DFE7F4"/>
<stop offset="1" stop-color="#BBC5DF"/>
</radialGradient>
<linearGradient id="paint13_linear_4398_750" x1="20.7037" y1="110.481" x2="17.9726" y2="118.056" gradientUnits="userSpaceOnUse">
<stop stop-color="#010B78"/>
<stop offset="1" stop-color="#0A0B20"/>
</linearGradient>
<linearGradient id="paint14_linear_4398_750" x1="45.2004" y1="90.7031" x2="45.2004" y2="119.347" gradientUnits="userSpaceOnUse">
<stop stop-color="#DFE7F4"/>
<stop offset="1" stop-color="#BBC5DF"/>
</linearGradient>
<linearGradient id="paint15_linear_4398_750" x1="45.2005" y1="121.508" x2="45.2005" y2="94.8685" gradientUnits="userSpaceOnUse">
<stop stop-color="#6BFFCD"/>
<stop offset="1" stop-color="#3BD29F"/>
</linearGradient>
<linearGradient id="paint16_linear_4398_750" x1="45.1956" y1="120.561" x2="45.1956" y2="97.3794" gradientUnits="userSpaceOnUse">
<stop stop-color="#DFE7F4" stop-opacity="0"/>
<stop offset="1" stop-color="#BBC5DF"/>
</linearGradient>
<linearGradient id="paint17_linear_4398_750" x1="7.60484" y1="18.3657" x2="6.01783" y2="25.5519" gradientUnits="userSpaceOnUse">
<stop stop-color="#DFE7F4"/>
<stop offset="1" stop-color="#BBC5DF"/>
</linearGradient>
<linearGradient id="paint18_linear_4398_750" x1="6.79378" y1="18.3382" x2="6.12735" y2="25.6456" gradientUnits="userSpaceOnUse">
<stop stop-color="#DFE7F4" stop-opacity="0"/>
<stop offset="1" stop-color="#BBC5DF"/>
</linearGradient>
<linearGradient id="paint19_linear_4398_750" x1="2.83412" y1="21.4721" x2="2.29031" y2="27.4418" gradientUnits="userSpaceOnUse">
<stop stop-color="#DFE7F4"/>
<stop offset="1" stop-color="#BBC5DF"/>
</linearGradient>
<linearGradient id="paint20_linear_4398_750" x1="2.82872" y1="21.4862" x2="2.28491" y2="27.4402" gradientUnits="userSpaceOnUse">
<stop stop-color="#DFE7F4" stop-opacity="0"/>
<stop offset="1" stop-color="#BBC5DF"/>
</linearGradient>
<linearGradient id="paint21_linear_4398_750" x1="6.02434" y1="23.0239" x2="8.06013" y2="29.0384" gradientUnits="userSpaceOnUse">
<stop stop-color="#5C5B83"/>
<stop offset="1" stop-color="#202042"/>
</linearGradient>
<linearGradient id="paint22_linear_4398_750" x1="11.7968" y1="18.8905" x2="11.1251" y2="26.2766" gradientUnits="userSpaceOnUse">
<stop stop-color="#DFE7F4"/>
<stop offset="1" stop-color="#BBC5DF"/>
</linearGradient>
<linearGradient id="paint23_linear_4398_750" x1="11.8377" y1="18.8943" x2="11.1606" y2="26.2803" gradientUnits="userSpaceOnUse">
<stop stop-color="#DFE7F4" stop-opacity="0"/>
<stop offset="1" stop-color="#BBC5DF"/>
</linearGradient>
<linearGradient id="paint24_linear_4398_750" x1="10.3821" y1="27.2393" x2="8.52672" y2="47.572" gradientUnits="userSpaceOnUse">
<stop stop-color="#DFE7F4"/>
<stop offset="1" stop-color="#BBC5DF"/>
</linearGradient>
<linearGradient id="paint25_linear_4398_750" x1="10.6402" y1="42.3021" x2="10.1017" y2="48.1931" gradientUnits="userSpaceOnUse">
<stop stop-color="#DFE7F4"/>
<stop offset="1" stop-color="#BBC5DF"/>
</linearGradient>
<linearGradient id="paint26_linear_4398_750" x1="11.084" y1="43.9348" x2="10.812" y2="50.3989" gradientUnits="userSpaceOnUse">
<stop stop-color="#5C5B83"/>
<stop offset="1" stop-color="#202042"/>
</linearGradient>
<linearGradient id="paint27_linear_4398_750" x1="16.4328" y1="45.9133" x2="14.6415" y2="65.4906" gradientUnits="userSpaceOnUse">
<stop stop-color="#DFE7F4"/>
<stop offset="1" stop-color="#BBC5DF"/>
</linearGradient>
<linearGradient id="paint28_linear_4398_750" x1="79.1203" y1="96.0131" x2="78.5871" y2="101.878" gradientUnits="userSpaceOnUse">
<stop stop-color="#DFE7F4"/>
<stop offset="1" stop-color="#BBC5DF"/>
</linearGradient>
<linearGradient id="paint29_linear_4398_750" x1="79.5639" y1="94.7894" x2="77.1744" y2="103.89" gradientUnits="userSpaceOnUse">
<stop stop-color="#DFE7F4" stop-opacity="0"/>
<stop offset="1" stop-color="#BBC5DF"/>
</linearGradient>
<linearGradient id="paint30_linear_4398_750" x1="75.0624" y1="100.269" x2="74.3697" y2="96.1065" gradientUnits="userSpaceOnUse">
<stop stop-color="#5C5B83"/>
<stop offset="1" stop-color="#202042"/>
</linearGradient>
<linearGradient id="paint31_linear_4398_750" x1="73.772" y1="75.1884" x2="71.8847" y2="95.8778" gradientUnits="userSpaceOnUse">
<stop stop-color="#DFE7F4"/>
<stop offset="1" stop-color="#BBC5DF"/>
</linearGradient>
<linearGradient id="paint32_linear_4398_750" x1="72.362" y1="75.2094" x2="71.6796" y2="82.8788" gradientUnits="userSpaceOnUse">
<stop stop-color="#DFE7F4"/>
<stop offset="1" stop-color="#BBC5DF"/>
</linearGradient>
<linearGradient id="paint33_linear_4398_750" x1="71.9436" y1="72.6529" x2="71.8157" y2="78.3459" gradientUnits="userSpaceOnUse">
<stop stop-color="#5C5B83"/>
<stop offset="1" stop-color="#202042"/>
</linearGradient>
<linearGradient id="paint34_linear_4398_750" x1="71.6497" y1="55.7616" x2="69.7624" y2="76.3932" gradientUnits="userSpaceOnUse">
<stop stop-color="#DFE7F4"/>
<stop offset="1" stop-color="#BBC5DF"/>
</linearGradient>
<linearGradient id="paint35_linear_4398_750" x1="76.5645" y1="97.6221" x2="75.9674" y2="104.137" gradientUnits="userSpaceOnUse">
<stop stop-color="#DFE7F4"/>
<stop offset="1" stop-color="#BBC5DF"/>
</linearGradient>
<linearGradient id="paint36_linear_4398_750" x1="76.8378" y1="97.6479" x2="76.2406" y2="104.158" gradientUnits="userSpaceOnUse">
<stop stop-color="#DFE7F4" stop-opacity="0"/>
<stop offset="1" stop-color="#BBC5DF"/>
</linearGradient>
<linearGradient id="paint37_linear_4398_750" x1="70.8593" y1="97.1619" x2="70.2622" y2="103.709" gradientUnits="userSpaceOnUse">
<stop stop-color="#DFE7F4"/>
<stop offset="1" stop-color="#BBC5DF"/>
</linearGradient>
<linearGradient id="paint38_linear_4398_750" x1="72.5369" y1="94.5789" x2="69.3012" y2="106.911" gradientUnits="userSpaceOnUse">
<stop stop-color="#DFE7F4" stop-opacity="0"/>
<stop offset="1" stop-color="#BBC5DF"/>
</linearGradient>
<linearGradient id="paint39_linear_4398_750" x1="25.7621" y1="51.9767" x2="25.3355" y2="70.6353" gradientUnits="userSpaceOnUse">
<stop stop-color="#010B78"/>
<stop offset="1" stop-color="#0A0B20"/>
</linearGradient>
<linearGradient id="paint40_linear_4398_750" x1="64.6336" y1="51.9767" x2="65.0602" y2="70.6353" gradientUnits="userSpaceOnUse">
<stop stop-color="#010B78"/>
<stop offset="1" stop-color="#0A0B20"/>
</linearGradient>
<linearGradient id="paint41_linear_4398_750" x1="45.1999" y1="51.7985" x2="45.1999" y2="44.1849" gradientUnits="userSpaceOnUse">
<stop stop-color="#5C5B83"/>
<stop offset="1" stop-color="#202042"/>
</linearGradient>
<linearGradient id="paint42_linear_4398_750" x1="45.2002" y1="51.9512" x2="45.2002" y2="102.371" gradientUnits="userSpaceOnUse">
<stop stop-color="#DFE7F4"/>
<stop offset="1" stop-color="#BBC5DF"/>
</linearGradient>
<linearGradient id="paint43_linear_4398_750" x1="45.2003" y1="53.7823" x2="45.2003" y2="89.3843" gradientUnits="userSpaceOnUse">
<stop stop-color="#DFE7F4"/>
<stop offset="1" stop-color="#BBC5DF" stop-opacity="0"/>
</linearGradient>
<linearGradient id="paint44_linear_4398_750" x1="45.2005" y1="83.8952" x2="45.2005" y2="114.219" gradientUnits="userSpaceOnUse">
<stop stop-color="#DFE7F4" stop-opacity="0"/>
<stop offset="1" stop-color="#BBC5DF"/>
</linearGradient>
<radialGradient id="paint45_radial_4398_750" cx="0" cy="0" r="1" gradientUnits="userSpaceOnUse" gradientTransform="translate(45.1999 81.0887) scale(18.1319 18.4281)">
<stop stop-color="#DFE7F4"/>
<stop offset="1" stop-color="#BBC5DF"/>
</radialGradient>
<linearGradient id="paint46_linear_4398_750" x1="45.2001" y1="65.5159" x2="45.2001" y2="87.7586" gradientUnits="userSpaceOnUse">
<stop stop-color="#DFE7F4" stop-opacity="0"/>
<stop offset="1" stop-color="#BBC5DF"/>
</linearGradient>
<linearGradient id="paint47_linear_4398_750" x1="45.2001" y1="64.5823" x2="45.2001" y2="86.825" gradientUnits="userSpaceOnUse">
<stop stop-color="#010B78"/>
<stop offset="1" stop-color="#0A0B20"/>
</linearGradient>
<linearGradient id="paint48_linear_4398_750" x1="47.1099" y1="65.1898" x2="43.7207" y2="77.3299" gradientUnits="userSpaceOnUse">
<stop stop-color="#010B78"/>
<stop offset="1" stop-color="#0A0B20"/>
</linearGradient>
<linearGradient id="paint49_linear_4398_750" x1="45.2004" y1="64.0628" x2="45.2004" y2="75.6695" gradientUnits="userSpaceOnUse">
<stop stop-color="#010B78"/>
<stop offset="1" stop-color="#0A0B20"/>
</linearGradient>
<linearGradient id="paint50_linear_4398_750" x1="47.1106" y1="64.5841" x2="43.7214" y2="76.7242" gradientUnits="userSpaceOnUse">
<stop stop-color="#18FFFF"/>
<stop offset="1" stop-color="#27B5FF"/>
</linearGradient>
<linearGradient id="paint51_linear_4398_750" x1="45.8305" y1="69.32" x2="43.7129" y2="76.9109" gradientUnits="userSpaceOnUse">
<stop stop-color="#18FFFF"/>
<stop offset="1" stop-color="#27B5FF"/>
</linearGradient>
<linearGradient id="paint52_linear_4398_750" x1="47.2498" y1="66.5035" x2="44.9242" y2="72.3179" gradientUnits="userSpaceOnUse">
<stop stop-color="#DFE7F4"/>
<stop offset="1" stop-color="#BBC5DF" stop-opacity="0"/>
</linearGradient>
<linearGradient id="paint53_linear_4398_750" x1="45.2005" y1="56.0913" x2="45.2005" y2="51.0015" gradientUnits="userSpaceOnUse">
<stop stop-color="#010B78"/>
<stop offset="1" stop-color="#0A0B20"/>
</linearGradient>
<linearGradient id="paint54_linear_4398_750" x1="45.2002" y1="55.1415" x2="45.2002" y2="51.5472" gradientUnits="userSpaceOnUse">
<stop stop-color="#DFE7F4"/>
<stop offset="1" stop-color="#BBC5DF"/>
</linearGradient>
<linearGradient id="paint55_linear_4398_750" x1="45.2005" y1="53.1406" x2="45.2005" y2="62.7272" gradientUnits="userSpaceOnUse">
<stop stop-color="#DFE7F4"/>
<stop offset="1" stop-color="#BBC5DF"/>
</linearGradient>
<linearGradient id="paint56_linear_4398_750" x1="45.2003" y1="3.40409" x2="45.2003" y2="13.1114" gradientUnits="userSpaceOnUse">
<stop stop-color="#5C5B83"/>
<stop offset="1" stop-color="#202042"/>
</linearGradient>
<linearGradient id="paint57_linear_4398_750" x1="45.2005" y1="9.04239" x2="45.2005" y2="45.059" gradientUnits="userSpaceOnUse">
<stop stop-color="#DFE7F4"/>
<stop offset="1" stop-color="#BBC5DF"/>
</linearGradient>
<linearGradient id="paint58_linear_4398_750" x1="45.2004" y1="45.7288" x2="45.2004" y2="16.0876" gradientUnits="userSpaceOnUse">
<stop stop-color="#010B78"/>
<stop offset="1" stop-color="#0A0B20"/>
</linearGradient>
<radialGradient id="paint59_radial_4398_750" cx="0" cy="0" r="1" gradientUnits="userSpaceOnUse" gradientTransform="translate(25.5244 33.0557) scale(8.58066 8.7208)">
<stop stop-color="#DFE7F4"/>
<stop offset="1" stop-color="#BBC5DF"/>
</radialGradient>
<radialGradient id="paint60_radial_4398_750" cx="0" cy="0" r="1" gradientUnits="userSpaceOnUse" gradientTransform="translate(64.8655 33.0557) rotate(180) scale(8.58066 8.7208)">
<stop stop-color="#DFE7F4"/>
<stop offset="1" stop-color="#BBC5DF"/>
</radialGradient>
<linearGradient id="paint61_linear_4398_750" x1="45.2001" y1="9.77699" x2="45.2001" y2="11.8076" gradientUnits="userSpaceOnUse">
<stop stop-color="#010B78"/>
<stop offset="1" stop-color="#0A0B20"/>
</linearGradient>
<linearGradient id="paint62_linear_4398_750" x1="44.9523" y1="-0.76084" x2="45.7787" y2="9.78917" gradientUnits="userSpaceOnUse">
<stop stop-color="#18FFFF"/>
<stop offset="1" stop-color="#27B5FF"/>
</linearGradient>
<linearGradient id="paint63_linear_4398_750" x1="57.7033" y1="25.5049" x2="47.0213" y2="25.5049" gradientUnits="userSpaceOnUse">
<stop stop-color="#22FFB4"/>
<stop offset="1" stop-color="#36CA98"/>
</linearGradient>
<linearGradient id="paint64_linear_4398_750" x1="37.668" y1="35.7999" x2="52.7022" y2="35.7999" gradientUnits="userSpaceOnUse">
<stop stop-color="#18FFAC"/>
<stop offset="1" stop-color="#27FF7D"/>
</linearGradient>
<linearGradient id="paint65_linear_4398_750" x1="43.9562" y1="25.5049" x2="33.2743" y2="25.5049" gradientUnits="userSpaceOnUse">
<stop stop-color="#3BD29F"/>
<stop offset="1" stop-color="#22FFB4"/>
</linearGradient>
<clipPath id="clip0_4398_750">
<rect width="81" height="152" fill="white"/>
</clipPath>
</defs>
</svg>
