<svg xmlns="http://www.w3.org/2000/svg" width="40" height="40" viewBox="0 0 40 40" fill="none">
  <path fill-rule="evenodd" clip-rule="evenodd" d="M10.9093 1.81824C5.8885 1.81824 1.81836 5.88838 1.81836 10.9091V29.091C1.81836 34.1117 5.8885 38.1819 10.9093 38.1819H29.0911C34.1118 38.1819 38.182 34.1117 38.182 29.091V10.9091C38.182 5.88838 34.1118 1.81824 29.0911 1.81824H10.9093ZM20.0002 10.9091C21.0044 10.9091 21.8184 11.7232 21.8184 12.7273V18.1819H27.2729C28.2771 18.1819 29.0911 18.9959 29.0911 20.0001C29.0911 21.0042 28.2771 21.8182 27.2729 21.8182H21.8184V27.2728C21.8184 28.277 21.0044 29.091 20.0002 29.091C18.996 29.091 18.182 28.277 18.182 27.2728V21.8182H12.7275C11.7233 21.8182 10.9093 21.0042 10.9093 20.0001C10.9093 18.9959 11.7233 18.1819 12.7275 18.1819H18.182V12.7273C18.182 11.7232 18.996 10.9091 20.0002 10.9091Z" fill="#28282A"/>
</svg>