<svg width="220" height="40" viewBox="0 0 220 40" fill="none" xmlns="http://www.w3.org/2000/svg">
<g clip-path="url(#clip0_4398_575)">
<path d="M37.6129 39.0709H0.532258C0.236559 39.0709 0 38.8344 0 38.5387V1.45804C0 1.16234 0.236559 0.925781 0.532258 0.925781H19.1317C19.4274 0.925781 19.664 1.16234 19.664 1.45804V5.59782C19.664 5.89352 19.4274 6.13008 19.1317 6.13008H5.76613C5.47043 6.13008 5.23387 6.36664 5.23387 6.66234V33.2457C5.23387 33.5414 5.47043 33.7779 5.76613 33.7779H32.3495C32.6451 33.7779 32.8817 33.5414 32.8817 33.2457V20.0575C32.8817 19.7618 33.1183 19.5252 33.414 19.5252H37.5538C37.8494 19.5252 38.086 19.7618 38.086 20.0575V38.4795C38.086 38.7752 37.8494 39.0118 37.5538 39.0118L37.6129 39.0709Z" fill="white"/>
<path d="M38.0864 1.48929V15.2984C38.0864 15.5941 37.8499 15.8307 37.5542 15.8307H33.3257C33.03 15.8307 32.7934 15.5941 32.7934 15.2984V9.68015L25.4896 16.9839C25.2827 17.1909 24.9278 17.1909 24.7208 16.9839C24.0703 16.3334 22.7101 14.9732 22.0595 14.3226C21.8525 14.1156 21.8525 13.7608 22.0595 13.5538L29.3633 6.25004H23.8337C23.538 6.25004 23.3015 6.01348 23.3015 5.71778V1.48929C23.3015 1.19359 23.538 0.957031 23.8337 0.957031H37.5542C37.8499 0.957031 38.0864 1.19359 38.0864 1.48929Z" fill="white"/>
<path d="M18.1574 17.4491L16.5055 19.1009C16.009 19.5975 16.009 20.4025 16.5055 20.8991L18.1574 22.5509C18.6539 23.0475 19.459 23.0475 19.9555 22.5509L21.6073 20.8991C22.1039 20.4025 22.1039 19.5975 21.6073 19.1009L19.9555 17.4491C19.459 16.9525 18.6539 16.9525 18.1574 17.4491Z" fill="white"/>
</g>
<path d="M194.946 34.2056V4.75H203.751C206.713 4.75 209.234 5.19023 211.315 6.0707C213.396 6.95116 215.064 8.12512 216.318 9.59256C217.598 11.06 218.532 12.7009 219.119 14.5152C219.706 16.3295 220 18.1571 220 19.9981C220 22.1859 219.599 24.1603 218.799 25.9212C218.025 27.6554 216.958 29.1496 215.597 30.4036C214.236 31.6309 212.662 32.578 210.875 33.2451C209.087 33.8854 207.193 34.2056 205.192 34.2056H194.946ZM200.749 28.6026H204.191C205.659 28.6026 206.993 28.4158 208.193 28.0423C209.394 27.6421 210.421 27.0685 211.275 26.3214C212.155 25.5743 212.822 24.6405 213.276 23.5199C213.756 22.3726 213.996 21.0653 213.996 19.5978C213.996 17.6768 213.676 16.116 213.036 14.9154C212.422 13.6881 211.648 12.7409 210.715 12.0739C209.807 11.4069 208.874 10.9533 207.913 10.7132C206.953 10.4463 206.139 10.3129 205.472 10.3129H200.749V28.6026Z" fill="white"/>
<path d="M168.292 4.75H188.383V10.353H174.095V16.6363H186.742V22.2392H174.095V28.6026H188.943V34.2056H168.292V4.75Z" fill="white"/>
<path d="M145.996 15.2355L145.836 16.7163L146.717 15.5957L156.322 4.75H163.846L151.679 17.957L163.886 34.2056H156.522L147.437 21.6389L145.996 23.0797V34.2056H140.113V4.75H145.996V15.2355Z" fill="white"/>
<path d="M104.231 19.5177C104.231 17.4899 104.618 15.5689 105.392 13.7546C106.166 11.9403 107.233 10.3395 108.594 8.95208C109.981 7.538 111.582 6.43074 113.396 5.63032C115.211 4.8299 117.158 4.42969 119.239 4.42969C121.294 4.42969 123.228 4.8299 125.042 5.63032C126.857 6.43074 128.458 7.538 129.845 8.95208C131.259 10.3395 132.353 11.9403 133.127 13.7546C133.927 15.5689 134.327 17.4899 134.327 19.5177C134.327 21.5988 133.927 23.5465 133.127 25.3607C132.353 27.175 131.259 28.7759 129.845 30.1633C128.458 31.524 126.857 32.5912 125.042 33.365C123.228 34.1387 121.294 34.5256 119.239 34.5256C117.158 34.5256 115.211 34.1387 113.396 33.365C111.582 32.5912 109.981 31.524 108.594 30.1633C107.233 28.7759 106.166 27.175 105.392 25.3607C104.618 23.5465 104.231 21.5988 104.231 19.5177ZM110.235 19.5177C110.235 20.825 110.461 22.0523 110.915 23.1996C111.395 24.3202 112.049 25.3207 112.876 26.2012C113.73 27.055 114.704 27.722 115.798 28.2022C116.918 28.6825 118.132 28.9226 119.439 28.9226C120.693 28.9226 121.854 28.6825 122.921 28.2022C124.015 27.722 124.962 27.055 125.763 26.2012C126.563 25.3207 127.19 24.3202 127.644 23.1996C128.097 22.0523 128.324 20.825 128.324 19.5177C128.324 18.1836 128.084 16.943 127.604 15.7957C127.15 14.6484 126.51 13.6479 125.683 12.7941C124.882 11.9136 123.935 11.2333 122.841 10.753C121.747 10.2728 120.56 10.0326 119.279 10.0326C117.999 10.0326 116.811 10.2728 115.718 10.753C114.624 11.2333 113.663 11.9136 112.836 12.7941C112.009 13.6479 111.369 14.6484 110.915 15.7957C110.461 16.943 110.235 18.1836 110.235 19.5177Z" fill="white"/>
<path d="M82.9998 4.75L91.6044 25.9612L88.2426 25.2808L96.0467 4.75H102.93L89.4832 35.5663L76.0361 4.75H82.9998Z" fill="white"/>
<path d="M51.9023 4.75H71.993V10.353H57.7054V16.6363H70.3521V22.2392H57.7054V28.6026H72.5533V34.2056H51.9023V4.75Z" fill="white"/>
<defs>
<clipPath id="clip0_4398_575">
<rect width="38.1451" height="38.1451" fill="white" transform="translate(0 0.925781)"/>
</clipPath>
</defs>
</svg>
