<svg width="220" height="40" viewBox="0 0 220 40" fill="none" xmlns="http://www.w3.org/2000/svg">
<g clip-path="url(#clip0_4814_7940)">
<path d="M37.6129 39.0726H0.532258C0.236559 39.0726 0 38.8361 0 38.5404V1.45975C0 1.16405 0.236559 0.92749 0.532258 0.92749H19.1317C19.4274 0.92749 19.664 1.16405 19.664 1.45975V5.59953C19.664 5.89523 19.4274 6.13179 19.1317 6.13179H5.76613C5.47043 6.13179 5.23387 6.36835 5.23387 6.66405V33.2474C5.23387 33.5431 5.47043 33.7796 5.76613 33.7796H32.3495C32.6451 33.7796 32.8817 33.5431 32.8817 33.2474V20.0592C32.8817 19.7635 33.1183 19.5269 33.414 19.5269H37.5538C37.8494 19.5269 38.086 19.7635 38.086 20.0592V38.4812C38.086 38.7769 37.8494 39.0135 37.5538 39.0135L37.6129 39.0726Z" fill="white"/>
<path d="M38.0859 1.48929V15.2984C38.0859 15.5941 37.8494 15.8307 37.5537 15.8307H33.3252C33.0295 15.8307 32.7929 15.5941 32.7929 15.2984V9.68015L25.4892 16.9839C25.2822 17.1909 24.9273 17.1909 24.7203 16.9839C24.0698 16.3334 22.7096 14.9732 22.0591 14.3226C21.8521 14.1156 21.8521 13.7608 22.0591 13.5538L29.3628 6.25004H23.8332C23.5375 6.25004 23.301 6.01348 23.301 5.71778V1.48929C23.301 1.19359 23.5375 0.957031 23.8332 0.957031H37.5537C37.8494 0.957031 38.0859 1.19359 38.0859 1.48929Z" fill="white"/>
<path d="M18.1574 17.4491L16.5055 19.1009C16.009 19.5975 16.009 20.4025 16.5055 20.8991L18.1574 22.5509C18.6539 23.0475 19.459 23.0475 19.9555 22.5509L21.6073 20.8991C22.1039 20.4025 22.1039 19.5975 21.6073 19.1009L19.9555 17.4491C19.459 16.9525 18.6539 16.9525 18.1574 17.4491Z" fill="white"/>
</g>
<path d="M194.947 34.2078V4.7522H203.751C206.713 4.7522 209.234 5.19243 211.315 6.0729C213.397 6.95336 215.064 8.12732 216.318 9.59476C217.599 11.0622 218.533 12.7031 219.12 14.5174C219.707 16.3316 220 18.1593 220 20.0003C220 22.1881 219.6 24.1625 218.799 25.9234C218.026 27.6576 216.958 29.1518 215.598 30.4058C214.237 31.6331 212.663 32.5802 210.875 33.2473C209.088 33.8876 207.193 34.2078 205.192 34.2078H194.947ZM200.75 28.6048H204.192C205.659 28.6048 206.993 28.418 208.194 28.0445C209.394 27.6443 210.422 27.0707 211.275 26.3236C212.156 25.5765 212.823 24.6427 213.276 23.5221C213.757 22.3748 213.997 21.0675 213.997 19.6C213.997 17.679 213.677 16.1182 213.036 14.9176C212.423 13.6903 211.649 12.7431 210.715 12.0761C209.808 11.409 208.874 10.9555 207.914 10.7153C206.953 10.4485 206.139 10.3151 205.472 10.3151H200.75V28.6048Z" fill="white"/>
<path d="M168.292 4.7522H188.383V10.3552H174.095V16.6385H186.742V22.2414H174.095V28.6048H188.943V34.2078H168.292V4.7522Z" fill="white"/>
<path d="M145.996 15.2377L145.836 16.7185L146.717 15.5979L156.322 4.7522H163.846L151.679 17.9592L163.886 34.2078H156.522L147.437 21.6411L145.996 23.0819V34.2078H140.113V4.7522H145.996V15.2377Z" fill="white"/>
<path d="M104.231 19.5199C104.231 17.4921 104.618 15.5711 105.392 13.7568C106.166 11.9425 107.233 10.3417 108.594 8.95427C109.981 7.54019 111.582 6.43294 113.396 5.63252C115.211 4.8321 117.158 4.43188 119.239 4.43188C121.294 4.43188 123.228 4.8321 125.042 5.63252C126.857 6.43294 128.458 7.54019 129.845 8.95427C131.259 10.3417 132.353 11.9425 133.127 13.7568C133.927 15.5711 134.327 17.4921 134.327 19.5199C134.327 21.601 133.927 23.5486 133.127 25.3629C132.353 27.1772 131.259 28.7781 129.845 30.1655C128.458 31.5262 126.857 32.5934 125.042 33.3672C123.228 34.1409 121.294 34.5278 119.239 34.5278C117.158 34.5278 115.211 34.1409 113.396 33.3672C111.582 32.5934 109.981 31.5262 108.594 30.1655C107.233 28.7781 106.166 27.1772 105.392 25.3629C104.618 23.5486 104.231 21.601 104.231 19.5199ZM110.235 19.5199C110.235 20.8272 110.461 22.0545 110.915 23.2018C111.395 24.3224 112.049 25.3229 112.876 26.2034C113.73 27.0572 114.704 27.7242 115.798 28.2044C116.918 28.6847 118.132 28.9248 119.439 28.9248C120.693 28.9248 121.854 28.6847 122.921 28.2044C124.015 27.7242 124.962 27.0572 125.763 26.2034C126.563 25.3229 127.19 24.3224 127.644 23.2018C128.097 22.0545 128.324 20.8272 128.324 19.5199C128.324 18.1858 128.084 16.9452 127.604 15.7979C127.15 14.6506 126.51 13.6501 125.683 12.7963C124.882 11.9158 123.935 11.2355 122.841 10.7552C121.747 10.275 120.56 10.0348 119.279 10.0348C117.999 10.0348 116.811 10.275 115.718 10.7552C114.624 11.2355 113.663 11.9158 112.836 12.7963C112.009 13.6501 111.369 14.6506 110.915 15.7979C110.461 16.9452 110.235 18.1858 110.235 19.5199Z" fill="white"/>
<path d="M82.9993 4.7522L91.6039 25.9634L88.2421 25.283L96.0462 4.7522H102.93L89.4827 35.5685L76.0356 4.7522H82.9993Z" fill="white"/>
<path d="M51.9023 4.7522H71.993V10.3552H57.7054V16.6385H70.3521V22.2414H57.7054V28.6048H72.5533V34.2078H51.9023V4.7522Z" fill="white"/>
<defs>
<clipPath id="clip0_4814_7940">
<rect width="38.1451" height="38.1451" fill="white" transform="translate(0 0.92749)"/>
</clipPath>
</defs>
</svg>
