<svg width="24" height="25" viewBox="0 0 24 25" fill="none" xmlns="http://www.w3.org/2000/svg">
<g id="Search icon">
<path id="Search icon_2" fill-rule="evenodd" clip-rule="evenodd" d="M16.5483 9.80256C16.5483 13.5677 13.5072 16.6051 9.77417 16.6051C6.0411 16.6051 3 13.5677 3 9.80256C3 6.0374 6.0411 3 9.77417 3C13.5072 3 16.5483 6.0374 16.5483 9.80256ZM15.0143 18.0788C13.4999 19.0452 11.7022 19.6051 9.77417 19.6051C4.37604 19.6051 0 15.2164 0 9.80256C0 4.38876 4.37604 0 9.77417 0C15.1723 0 19.5483 4.38876 19.5483 9.80256C19.5483 12.197 18.6923 14.3909 17.2705 16.0933L23.4847 22.3508L21.3707 24.4795L15.0143 18.0788Z" fill="#010101" fill-opacity="0.5"/>
</g>
</svg>
